%TF.GenerationSoftware,KiCad,Pcbnew,8.0.6-1.fc40*%
%TF.CreationDate,2024-12-19T20:54:17-05:00*%
%TF.ProjectId,Controller_T41,436f6e74-726f-46c6-9c65-725f5434312e,rev?*%
%TF.SameCoordinates,Original*%
%TF.FileFunction,Copper,L1,Top*%
%TF.FilePolarity,Positive*%
%FSLAX46Y46*%
G04 Gerber Fmt 4.6, Leading zero omitted, Abs format (unit mm)*
G04 Created by KiCad (PCBNEW 8.0.6-1.fc40) date 2024-12-19 20:54:17*
%MOMM*%
%LPD*%
G01*
G04 APERTURE LIST*
G04 Aperture macros list*
%AMRoundRect*
0 Rectangle with rounded corners*
0 $1 Rounding radius*
0 $2 $3 $4 $5 $6 $7 $8 $9 X,Y pos of 4 corners*
0 Add a 4 corners polygon primitive as box body*
4,1,4,$2,$3,$4,$5,$6,$7,$8,$9,$2,$3,0*
0 Add four circle primitives for the rounded corners*
1,1,$1+$1,$2,$3*
1,1,$1+$1,$4,$5*
1,1,$1+$1,$6,$7*
1,1,$1+$1,$8,$9*
0 Add four rect primitives between the rounded corners*
20,1,$1+$1,$2,$3,$4,$5,0*
20,1,$1+$1,$4,$5,$6,$7,0*
20,1,$1+$1,$6,$7,$8,$9,0*
20,1,$1+$1,$8,$9,$2,$3,0*%
G04 Aperture macros list end*
%TA.AperFunction,ComponentPad*%
%ADD10RoundRect,0.250000X0.600000X-0.600000X0.600000X0.600000X-0.600000X0.600000X-0.600000X-0.600000X0*%
%TD*%
%TA.AperFunction,ComponentPad*%
%ADD11C,1.700000*%
%TD*%
%TA.AperFunction,SMDPad,CuDef*%
%ADD12RoundRect,0.237500X-0.237500X0.250000X-0.237500X-0.250000X0.237500X-0.250000X0.237500X0.250000X0*%
%TD*%
%TA.AperFunction,ComponentPad*%
%ADD13R,1.755000X1.755000*%
%TD*%
%TA.AperFunction,ComponentPad*%
%ADD14C,1.755000*%
%TD*%
%TA.AperFunction,SMDPad,CuDef*%
%ADD15RoundRect,0.250000X-0.475000X0.250000X-0.475000X-0.250000X0.475000X-0.250000X0.475000X0.250000X0*%
%TD*%
%TA.AperFunction,SMDPad,CuDef*%
%ADD16RoundRect,0.237500X-0.250000X-0.237500X0.250000X-0.237500X0.250000X0.237500X-0.250000X0.237500X0*%
%TD*%
%TA.AperFunction,ComponentPad*%
%ADD17RoundRect,0.250000X-0.600000X0.600000X-0.600000X-0.600000X0.600000X-0.600000X0.600000X0.600000X0*%
%TD*%
%TA.AperFunction,SMDPad,CuDef*%
%ADD18RoundRect,0.237500X-0.237500X0.300000X-0.237500X-0.300000X0.237500X-0.300000X0.237500X0.300000X0*%
%TD*%
%TA.AperFunction,ComponentPad*%
%ADD19R,1.700000X1.700000*%
%TD*%
%TA.AperFunction,ComponentPad*%
%ADD20O,1.700000X1.700000*%
%TD*%
%TA.AperFunction,SMDPad,CuDef*%
%ADD21RoundRect,0.237500X0.250000X0.237500X-0.250000X0.237500X-0.250000X-0.237500X0.250000X-0.237500X0*%
%TD*%
%TA.AperFunction,ComponentPad*%
%ADD22C,3.600000*%
%TD*%
%TA.AperFunction,ConnectorPad*%
%ADD23C,5.600000*%
%TD*%
%TA.AperFunction,ComponentPad*%
%ADD24R,1.600000X1.600000*%
%TD*%
%TA.AperFunction,ComponentPad*%
%ADD25C,1.600000*%
%TD*%
%TA.AperFunction,ComponentPad*%
%ADD26R,1.300000X1.300000*%
%TD*%
%TA.AperFunction,ComponentPad*%
%ADD27C,1.300000*%
%TD*%
%TA.AperFunction,SMDPad,CuDef*%
%ADD28RoundRect,0.237500X0.237500X-0.250000X0.237500X0.250000X-0.237500X0.250000X-0.237500X-0.250000X0*%
%TD*%
%TA.AperFunction,SMDPad,CuDef*%
%ADD29R,3.600000X1.500000*%
%TD*%
%TA.AperFunction,SMDPad,CuDef*%
%ADD30RoundRect,0.150000X-0.150000X0.587500X-0.150000X-0.587500X0.150000X-0.587500X0.150000X0.587500X0*%
%TD*%
%TA.AperFunction,SMDPad,CuDef*%
%ADD31RoundRect,0.250000X-0.250000X-0.475000X0.250000X-0.475000X0.250000X0.475000X-0.250000X0.475000X0*%
%TD*%
%TA.AperFunction,SMDPad,CuDef*%
%ADD32RoundRect,0.250000X0.250000X0.475000X-0.250000X0.475000X-0.250000X-0.475000X0.250000X-0.475000X0*%
%TD*%
%TA.AperFunction,SMDPad,CuDef*%
%ADD33RoundRect,0.150000X0.512500X0.150000X-0.512500X0.150000X-0.512500X-0.150000X0.512500X-0.150000X0*%
%TD*%
%TA.AperFunction,ViaPad*%
%ADD34C,1.000000*%
%TD*%
%TA.AperFunction,ViaPad*%
%ADD35C,0.800000*%
%TD*%
%TA.AperFunction,Conductor*%
%ADD36C,0.600000*%
%TD*%
%TA.AperFunction,Conductor*%
%ADD37C,0.800000*%
%TD*%
%TA.AperFunction,Conductor*%
%ADD38C,0.250000*%
%TD*%
%TA.AperFunction,Conductor*%
%ADD39C,0.400000*%
%TD*%
%TA.AperFunction,Conductor*%
%ADD40C,0.500000*%
%TD*%
%TA.AperFunction,Conductor*%
%ADD41C,1.000000*%
%TD*%
G04 APERTURE END LIST*
D10*
%TO.P,J4,1,Pin_1*%
%TO.N,+3.3V_SPI*%
X143890000Y-76250000D03*
D11*
%TO.P,J4,2,Pin_2*%
%TO.N,Earth*%
X143890000Y-73710000D03*
%TO.P,J4,3,Pin_3*%
%TO.N,SPI:SDI*%
X146430000Y-76250000D03*
%TO.P,J4,4,Pin_4*%
%TO.N,Earth*%
X146430000Y-73710000D03*
%TO.P,J4,5,Pin_5*%
%TO.N,SPI:CLK*%
X148970000Y-76250000D03*
%TO.P,J4,6,Pin_6*%
%TO.N,Earth*%
X148970000Y-73710000D03*
%TO.P,J4,7,Pin_7*%
%TO.N,SPI:SDO*%
X151510000Y-76250000D03*
%TO.P,J4,8,Pin_8*%
%TO.N,Earth*%
X151510000Y-73710000D03*
%TO.P,J4,9,Pin_9*%
%TO.N,SPI:CS_CNVST*%
X154050000Y-76250000D03*
%TO.P,J4,10,Pin_10*%
%TO.N,Earth*%
X154050000Y-73710000D03*
%TO.P,J4,11,Pin_11*%
%TO.N,+3.3V_SPI*%
X156590000Y-76250000D03*
%TO.P,J4,12,Pin_12*%
%TO.N,Earth*%
X156590000Y-73710000D03*
%TO.P,J4,13,Pin_13*%
%TO.N,CCD:SPR*%
X159130000Y-76250000D03*
%TO.P,J4,14,Pin_14*%
%TO.N,Earth*%
X159130000Y-73710000D03*
%TO.P,J4,15,Pin_15*%
%TO.N,CCD:SH*%
X161670000Y-76250000D03*
%TO.P,J4,16,Pin_16*%
%TO.N,Earth*%
X161670000Y-73710000D03*
%TO.P,J4,17,Pin_17*%
%TO.N,CCD:ICG*%
X164210000Y-76250000D03*
%TO.P,J4,18,Pin_18*%
%TO.N,Earth*%
X164210000Y-73710000D03*
%TO.P,J4,19,Pin_19*%
%TO.N,CCD:CLK*%
X166750000Y-76250000D03*
%TO.P,J4,20,Pin_20*%
%TO.N,Earth*%
X166750000Y-73710000D03*
%TD*%
D12*
%TO.P,R4,1*%
%TO.N,Net-(J3-Pin_6)*%
X171590000Y-87937500D03*
%TO.P,R4,2*%
%TO.N,Net-(U2-2_OUT2)*%
X171590000Y-89762500D03*
%TD*%
%TO.P,R8,1*%
%TO.N,CCD:SH*%
X158890000Y-87937500D03*
%TO.P,R8,2*%
%TO.N,Net-(U2-7_RX2_OUT1A)*%
X158890000Y-89762500D03*
%TD*%
D13*
%TO.P,J2,1,1*%
%TO.N,+3.3V*%
X156390000Y-125440000D03*
D14*
%TO.P,J2,2,2*%
%TO.N,Earth*%
X158930000Y-125440000D03*
%TD*%
D15*
%TO.P,C1,1*%
%TO.N,+3.3V_SPI*%
X109280000Y-117770000D03*
%TO.P,C1,2*%
%TO.N,Earth*%
X109280000Y-119670000D03*
%TD*%
D16*
%TO.P,R16,1*%
%TO.N,SPI1:CLK*%
X131677500Y-89300000D03*
%TO.P,R16,2*%
%TO.N,Net-(U2-27_A13_SCK1)*%
X133502500Y-89300000D03*
%TD*%
D17*
%TO.P,J8,1,Pin_1*%
%TO.N,+3.3V_SPI*%
X130400000Y-123250000D03*
D11*
%TO.P,J8,2,Pin_2*%
%TO.N,Earth*%
X130400000Y-125790000D03*
%TO.P,J8,3,Pin_3*%
%TO.N,SPI1:SDI*%
X127860000Y-123250000D03*
%TO.P,J8,4,Pin_4*%
%TO.N,Earth*%
X127860000Y-125790000D03*
%TO.P,J8,5,Pin_5*%
%TO.N,SPI1:CLK*%
X125320000Y-123250000D03*
%TO.P,J8,6,Pin_6*%
%TO.N,Earth*%
X125320000Y-125790000D03*
%TO.P,J8,7,Pin_7*%
%TO.N,SPI1:SDO*%
X122780000Y-123250000D03*
%TO.P,J8,8,Pin_8*%
%TO.N,Earth*%
X122780000Y-125790000D03*
%TO.P,J8,9,Pin_9*%
%TO.N,SPI1\u005C:CS_CNVST*%
X120240000Y-123250000D03*
%TO.P,J8,10,Pin_10*%
%TO.N,Earth*%
X120240000Y-125790000D03*
%TO.P,J8,11,Pin_11*%
%TO.N,+3.3V_SPI*%
X117700000Y-123250000D03*
%TO.P,J8,12,Pin_12*%
%TO.N,Earth*%
X117700000Y-125790000D03*
%TD*%
D12*
%TO.P,R5,1*%
%TO.N,Net-(J3-Pin_8)*%
X169050000Y-87937500D03*
%TO.P,R5,2*%
%TO.N,Net-(U2-3_LRCLK2)*%
X169050000Y-89762500D03*
%TD*%
D18*
%TO.P,C8,1*%
%TO.N,Net-(U3-BP)*%
X160160000Y-115747500D03*
%TO.P,C8,2*%
%TO.N,Earth*%
X160160000Y-117472500D03*
%TD*%
D15*
%TO.P,C3,1*%
%TO.N,+3.3V_SPI*%
X109280000Y-81710000D03*
%TO.P,C3,2*%
%TO.N,Earth*%
X109280000Y-83610000D03*
%TD*%
D19*
%TO.P,J12,1,Pin_1*%
%TO.N,Earth*%
X111480000Y-108900000D03*
D20*
%TO.P,J12,2,Pin_2*%
%TO.N,Net-(J12-Pin_2)*%
X111480000Y-106360000D03*
%TO.P,J12,3,Pin_3*%
%TO.N,Net-(J12-Pin_3)*%
X111480000Y-103820000D03*
%TO.P,J12,4,Pin_4*%
%TO.N,Net-(J12-Pin_4)*%
X111480000Y-101280000D03*
%TO.P,J12,5,Pin_5*%
%TO.N,Net-(J12-Pin_5)*%
X111480000Y-98740000D03*
%TO.P,J12,6,Pin_6*%
%TO.N,Net-(J12-Pin_6)*%
X111480000Y-96200000D03*
%TO.P,J12,7,Pin_7*%
%TO.N,Net-(J12-Pin_7)*%
X111480000Y-93660000D03*
%TO.P,J12,8,Pin_8*%
%TO.N,Net-(J12-Pin_8)*%
X111480000Y-91120000D03*
%TD*%
D12*
%TO.P,R6,1*%
%TO.N,CCD:CLK*%
X163970000Y-87937500D03*
%TO.P,R6,2*%
%TO.N,Net-(U2-4_BCLK2)*%
X163970000Y-89762500D03*
%TD*%
D21*
%TO.P,R17,1*%
%TO.N,SPI1:SDO*%
X137852500Y-110040000D03*
%TO.P,R17,2*%
%TO.N,Net-(U2-39_MISO1_OUT1A)*%
X136027500Y-110040000D03*
%TD*%
D22*
%TO.P,H1,1,1*%
%TO.N,Earth*%
X178000000Y-125000000D03*
D23*
X178000000Y-125000000D03*
%TD*%
D24*
%TO.P,U2,1,GND*%
%TO.N,Earth*%
X179210000Y-92380000D03*
D25*
%TO.P,U2,2,0_RX1_CRX2_CS1*%
%TO.N,Net-(U2-0_RX1_CRX2_CS1)*%
X176670000Y-92380000D03*
%TO.P,U2,3,1_TX1_CTX2_MISO1*%
%TO.N,Net-(U2-1_TX1_CTX2_MISO1)*%
X174130000Y-92380000D03*
%TO.P,U2,4,2_OUT2*%
%TO.N,Net-(U2-2_OUT2)*%
X171590000Y-92380000D03*
%TO.P,U2,5,3_LRCLK2*%
%TO.N,Net-(U2-3_LRCLK2)*%
X169050000Y-92380000D03*
%TO.P,U2,6,4_BCLK2*%
%TO.N,Net-(U2-4_BCLK2)*%
X166510000Y-92380000D03*
%TO.P,U2,7,5_IN2*%
X163970000Y-92380000D03*
%TO.P,U2,8,6_OUT1D*%
%TO.N,Net-(U2-6_OUT1D)*%
X161430000Y-92380000D03*
%TO.P,U2,9,7_RX2_OUT1A*%
%TO.N,Net-(U2-7_RX2_OUT1A)*%
X158890000Y-92380000D03*
%TO.P,U2,10,8_TX2_IN1*%
%TO.N,Net-(U2-8_TX2_IN1)*%
X156350000Y-92380000D03*
%TO.P,U2,11,9_OUT1C*%
%TO.N,Net-(U2-9_OUT1C)*%
X153810000Y-92380000D03*
%TO.P,U2,12,10_CS_MQSR*%
%TO.N,Net-(U2-10_CS_MQSR)*%
X151270000Y-92380000D03*
%TO.P,U2,13,11_MOSI_CTX1*%
%TO.N,Net-(U2-11_MOSI_CTX1)*%
X148730000Y-92380000D03*
%TO.P,U2,14,12_MISO_MQSL*%
%TO.N,Net-(U2-12_MISO_MQSL)*%
X146190000Y-92380000D03*
%TO.P,U2,15,3V3*%
%TO.N,3.3V_T4*%
X143650000Y-92380000D03*
%TO.P,U2,16,24_A10_TX6_SCL2*%
%TO.N,Net-(J11-Pin_8)*%
X141110000Y-92380000D03*
%TO.P,U2,17,25_A11_RX6_SDA2*%
%TO.N,Net-(J11-Pin_7)*%
X138570000Y-92380000D03*
%TO.P,U2,18,26_A12_MOSI1*%
%TO.N,Net-(U2-26_A12_MOSI1)*%
X136030000Y-92380000D03*
%TO.P,U2,19,27_A13_SCK1*%
%TO.N,Net-(U2-27_A13_SCK1)*%
X133490000Y-92380000D03*
%TO.P,U2,20,28_RX7*%
%TO.N,Net-(J11-Pin_6)*%
X130950000Y-92380000D03*
%TO.P,U2,21,29_TX7*%
%TO.N,Net-(J11-Pin_5)*%
X128410000Y-92380000D03*
%TO.P,U2,22,30_CRX3*%
%TO.N,Net-(J11-Pin_4)*%
X125870000Y-92380000D03*
%TO.P,U2,23,31_CTX3*%
%TO.N,Net-(J11-Pin_3)*%
X123330000Y-92380000D03*
%TO.P,U2,24,32_OUT1B*%
%TO.N,Net-(J11-Pin_2)*%
X120790000Y-92380000D03*
%TO.P,U2,25,33_MCLK2*%
%TO.N,Net-(J12-Pin_2)*%
X120790000Y-107620000D03*
%TO.P,U2,26,34_RX8*%
%TO.N,Net-(J12-Pin_3)*%
X123330000Y-107620000D03*
%TO.P,U2,27,35_TX8*%
%TO.N,Net-(J12-Pin_4)*%
X125870000Y-107620000D03*
%TO.P,U2,28,36_CS*%
%TO.N,Net-(J12-Pin_5)*%
X128410000Y-107620000D03*
%TO.P,U2,29,37_CS*%
%TO.N,Net-(J12-Pin_6)*%
X130950000Y-107620000D03*
%TO.P,U2,30,38_CS1_IN1*%
%TO.N,Net-(U2-38_CS1_IN1)*%
X133490000Y-107620000D03*
%TO.P,U2,31,39_MISO1_OUT1A*%
%TO.N,Net-(U2-39_MISO1_OUT1A)*%
X136030000Y-107620000D03*
%TO.P,U2,32,40_A16*%
%TO.N,Net-(J12-Pin_7)*%
X138570000Y-107620000D03*
%TO.P,U2,33,41_A17*%
%TO.N,Net-(J12-Pin_8)*%
X141110000Y-107620000D03*
%TO.P,U2,34,GND*%
%TO.N,Earth*%
X143650000Y-107620000D03*
%TO.P,U2,35,13_SCK_LED*%
%TO.N,Net-(U2-13_SCK_LED)*%
X146190000Y-107620000D03*
%TO.P,U2,36,14_A0_TX3_SPDIF_OUT*%
%TO.N,Net-(U2-14_A0_TX3_SPDIF_OUT)*%
X148730000Y-107620000D03*
%TO.P,U2,37,15_A1_RX3_SPDIF_IN*%
%TO.N,Net-(U2-15_A1_RX3_SPDIF_IN)*%
X151270000Y-107620000D03*
%TO.P,U2,38,16_A2_RX4_SCL1*%
%TO.N,Net-(U2-16_A2_RX4_SCL1)*%
X153810000Y-107620000D03*
%TO.P,U2,39,17_A3_TX4_SDA1*%
%TO.N,Net-(U2-17_A3_TX4_SDA1)*%
X156350000Y-107620000D03*
%TO.P,U2,40,18_A4_SDA*%
%TO.N,Net-(J13-Pin_8)*%
X158890000Y-107620000D03*
%TO.P,U2,41,19_A5_SCL*%
%TO.N,Net-(J13-Pin_7)*%
X161430000Y-107620000D03*
%TO.P,U2,42,20_A6_TX5_LRCLK1*%
%TO.N,Net-(J13-Pin_6)*%
X163970000Y-107620000D03*
%TO.P,U2,43,21_A7_RX5_BCLK1*%
%TO.N,Net-(J13-Pin_5)*%
X166510000Y-107620000D03*
%TO.P,U2,44,22_A8_CTX1*%
%TO.N,Net-(J13-Pin_4)*%
X169050000Y-107620000D03*
%TO.P,U2,45,23_A9_CRX1_MCLK1*%
%TO.N,Net-(J13-Pin_3)*%
X171590000Y-107620000D03*
%TO.P,U2,46,3V3*%
%TO.N,3.3V_T4*%
X174130000Y-107620000D03*
%TO.P,U2,47,GND*%
%TO.N,Earth*%
X176670000Y-107620000D03*
%TO.P,U2,48,VIN*%
%TO.N,/5V_IN*%
X179210000Y-107620000D03*
%TO.P,U2,49,VUSB*%
%TO.N,unconnected-(U2-VUSB-Pad49)*%
X176670000Y-105080000D03*
%TO.P,U2,50,VBAT*%
%TO.N,unconnected-(U2-VBAT-Pad50)*%
X133490000Y-94920000D03*
%TO.P,U2,51,3V3*%
%TO.N,unconnected-(U2-3V3-Pad51)*%
X133490000Y-97460000D03*
%TO.P,U2,52,GND*%
%TO.N,unconnected-(U2-GND-Pad52)*%
X133490000Y-100000000D03*
%TO.P,U2,53,PROGRAM*%
%TO.N,unconnected-(U2-PROGRAM-Pad53)*%
X133490000Y-102540000D03*
%TO.P,U2,54,ON_OFF*%
%TO.N,unconnected-(U2-ON_OFF-Pad54)*%
X133490000Y-105080000D03*
D24*
%TO.P,U2,55,5V*%
%TO.N,unconnected-(U2-5V-Pad55)*%
X172910800Y-95430800D03*
D25*
%TO.P,U2,56,D-*%
%TO.N,unconnected-(U2-D--Pad56)*%
X170370800Y-95430800D03*
%TO.P,U2,57,D+*%
%TO.N,unconnected-(U2-D+-Pad57)*%
X167830800Y-95430800D03*
%TO.P,U2,58,GND*%
%TO.N,unconnected-(U2-GND-Pad58)*%
X165290800Y-95430800D03*
%TO.P,U2,59,GND*%
%TO.N,unconnected-(U2-GND-Pad59)*%
X162750800Y-95430800D03*
D26*
%TO.P,U2,60,R+*%
%TO.N,unconnected-(U2-R+-Pad60)*%
X166240000Y-105181600D03*
D27*
%TO.P,U2,61,LED*%
%TO.N,unconnected-(U2-LED-Pad61)*%
X166240000Y-103181600D03*
%TO.P,U2,62,T-*%
%TO.N,unconnected-(U2-T--Pad62)*%
X166240000Y-101181600D03*
%TO.P,U2,63,T+*%
%TO.N,unconnected-(U2-T+-Pad63)*%
X164240000Y-101181600D03*
%TO.P,U2,64,GND*%
%TO.N,unconnected-(U2-GND-Pad64)*%
X164240000Y-103181600D03*
%TO.P,U2,65,R-*%
%TO.N,unconnected-(U2-R--Pad65)*%
X164240000Y-105181600D03*
%TO.P,U2,66,D-*%
%TO.N,unconnected-(U2-D--Pad66)*%
X178480000Y-101270000D03*
%TO.P,U2,67,D+*%
%TO.N,unconnected-(U2-D+-Pad67)*%
X178480000Y-98730000D03*
%TD*%
D22*
%TO.P,H4,1,1*%
%TO.N,Earth*%
X106000000Y-75000000D03*
D23*
X106000000Y-75000000D03*
%TD*%
D28*
%TO.P,R19,1*%
%TO.N,Net-(J10-Pin_1)*%
X147800000Y-121300000D03*
%TO.P,R19,2*%
%TO.N,Net-(U2-17_A3_TX4_SDA1)*%
X147800000Y-119475000D03*
%TD*%
D12*
%TO.P,R7,1*%
%TO.N,CCD:ICG*%
X161430000Y-87937500D03*
%TO.P,R7,2*%
%TO.N,Net-(U2-6_OUT1D)*%
X161430000Y-89762500D03*
%TD*%
D29*
%TO.P,L1,1,1*%
%TO.N,/5V_IN*%
X174000000Y-115250000D03*
%TO.P,L1,2,2*%
%TO.N,+5V*%
X174000000Y-118300000D03*
%TD*%
D30*
%TO.P,D2,1,K*%
%TO.N,Earth*%
X144912500Y-115552500D03*
%TO.P,D2,2,A*%
%TO.N,3.3V_T4*%
X143012500Y-115552500D03*
%TO.P,D2,3,K*%
%TO.N,Net-(U2-16_A2_RX4_SCL1)*%
X143962500Y-117427500D03*
%TD*%
D12*
%TO.P,R10,1*%
%TO.N,Net-(J3-Pin_10)*%
X153810000Y-87937500D03*
%TO.P,R10,2*%
%TO.N,Net-(U2-9_OUT1C)*%
X153810000Y-89762500D03*
%TD*%
D19*
%TO.P,J13,1,Pin_1*%
%TO.N,Earth*%
X176670000Y-111550000D03*
D20*
%TO.P,J13,2,Pin_2*%
%TO.N,3.3V_T4*%
X174130000Y-111550000D03*
%TO.P,J13,3,Pin_3*%
%TO.N,Net-(J13-Pin_3)*%
X171590000Y-111550000D03*
%TO.P,J13,4,Pin_4*%
%TO.N,Net-(J13-Pin_4)*%
X169050000Y-111550000D03*
%TO.P,J13,5,Pin_5*%
%TO.N,Net-(J13-Pin_5)*%
X166510000Y-111550000D03*
%TO.P,J13,6,Pin_6*%
%TO.N,Net-(J13-Pin_6)*%
X163970000Y-111550000D03*
%TO.P,J13,7,Pin_7*%
%TO.N,Net-(J13-Pin_7)*%
X161430000Y-111550000D03*
%TO.P,J13,8,Pin_8*%
%TO.N,Net-(J13-Pin_8)*%
X158890000Y-111550000D03*
%TD*%
D21*
%TO.P,R15,1*%
%TO.N,SPI1:SDI*%
X137855200Y-89300000D03*
%TO.P,R15,2*%
%TO.N,Net-(U2-26_A12_MOSI1)*%
X136030200Y-89300000D03*
%TD*%
D30*
%TO.P,D4,1,K*%
%TO.N,Earth*%
X137292500Y-115608200D03*
%TO.P,D4,2,A*%
%TO.N,3.3V_T4*%
X135392500Y-115608200D03*
%TO.P,D4,3,K*%
%TO.N,Net-(U2-14_A0_TX3_SPDIF_OUT)*%
X136342500Y-117483200D03*
%TD*%
D12*
%TO.P,R12,1*%
%TO.N,SPI:SDI*%
X148730000Y-87937500D03*
%TO.P,R12,2*%
%TO.N,Net-(U2-11_MOSI_CTX1)*%
X148730000Y-89762500D03*
%TD*%
D19*
%TO.P,J10,1,Pin_1*%
%TO.N,Net-(J10-Pin_1)*%
X147800000Y-125125000D03*
D20*
%TO.P,J10,2,Pin_2*%
%TO.N,Earth*%
X147800000Y-127665000D03*
%TO.P,J10,3,Pin_3*%
%TO.N,Net-(J10-Pin_3)*%
X145260000Y-125125000D03*
%TO.P,J10,4,Pin_4*%
%TO.N,Earth*%
X145260000Y-127665000D03*
%TO.P,J10,5,Pin_5*%
%TO.N,Net-(J10-Pin_5)*%
X142720000Y-125125000D03*
%TO.P,J10,6,Pin_6*%
%TO.N,Earth*%
X142720000Y-127665000D03*
%TO.P,J10,7,Pin_7*%
%TO.N,Net-(J10-Pin_7)*%
X140180000Y-125125000D03*
%TO.P,J10,8,Pin_8*%
%TO.N,Earth*%
X140180000Y-127665000D03*
%TD*%
D28*
%TO.P,R20,1*%
%TO.N,Net-(J10-Pin_3)*%
X145260000Y-121300000D03*
%TO.P,R20,2*%
%TO.N,Net-(U2-16_A2_RX4_SCL1)*%
X145260000Y-119475000D03*
%TD*%
D12*
%TO.P,R2,1*%
%TO.N,Net-(J3-Pin_2)*%
X176670000Y-87937500D03*
%TO.P,R2,2*%
%TO.N,Net-(U2-0_RX1_CRX2_CS1)*%
X176670000Y-89762500D03*
%TD*%
D13*
%TO.P,J1,1,1*%
%TO.N,+5V*%
X166690000Y-125440000D03*
D14*
%TO.P,J1,2,2*%
%TO.N,Earth*%
X169230000Y-125440000D03*
%TD*%
D12*
%TO.P,R9,1*%
%TO.N,CCD:SPR*%
X156350000Y-87937500D03*
%TO.P,R9,2*%
%TO.N,Net-(U2-8_TX2_IN1)*%
X156350000Y-89762500D03*
%TD*%
D19*
%TO.P,J11,1,Pin_1*%
%TO.N,Earth*%
X106080000Y-89840000D03*
D20*
%TO.P,J11,2,Pin_2*%
%TO.N,Net-(J11-Pin_2)*%
X106080000Y-92380000D03*
%TO.P,J11,3,Pin_3*%
%TO.N,Net-(J11-Pin_3)*%
X106080000Y-94920000D03*
%TO.P,J11,4,Pin_4*%
%TO.N,Net-(J11-Pin_4)*%
X106080000Y-97460000D03*
%TO.P,J11,5,Pin_5*%
%TO.N,Net-(J11-Pin_5)*%
X106080000Y-100000000D03*
%TO.P,J11,6,Pin_6*%
%TO.N,Net-(J11-Pin_6)*%
X106080000Y-102540000D03*
%TO.P,J11,7,Pin_7*%
%TO.N,Net-(J11-Pin_7)*%
X106080000Y-105080000D03*
%TO.P,J11,8,Pin_8*%
%TO.N,Net-(J11-Pin_8)*%
X106080000Y-107620000D03*
%TO.P,J11,9,Pin_9*%
%TO.N,3.3V_T4*%
X106080000Y-110160000D03*
%TD*%
D16*
%TO.P,R18,1*%
%TO.N,SPI1\u005C:CS_CNVST*%
X131667500Y-110040000D03*
%TO.P,R18,2*%
%TO.N,Net-(U2-38_CS1_IN1)*%
X133492500Y-110040000D03*
%TD*%
D28*
%TO.P,R22,1*%
%TO.N,Net-(J10-Pin_7)*%
X140180000Y-121300000D03*
%TO.P,R22,2*%
%TO.N,Net-(U2-14_A0_TX3_SPDIF_OUT)*%
X140180000Y-119475000D03*
%TD*%
D12*
%TO.P,R1,1*%
%TO.N,/5V_IN*%
X170700000Y-115862500D03*
%TO.P,R1,2*%
%TO.N,+5V*%
X170700000Y-117687500D03*
%TD*%
D19*
%TO.P,J7,1,Pin_1*%
%TO.N,Earth*%
X117830000Y-83000000D03*
D20*
%TO.P,J7,2,Pin_2*%
%TO.N,SPI:SDI*%
X120370000Y-83000000D03*
%TO.P,J7,3,Pin_3*%
%TO.N,SPI:CLK*%
X122910000Y-83000000D03*
%TO.P,J7,4,Pin_4*%
%TO.N,SPI:SDO*%
X125450000Y-83000000D03*
%TO.P,J7,5,Pin_5*%
%TO.N,SPI:CS_CNVST*%
X127990000Y-83000000D03*
%TO.P,J7,6,Pin_6*%
%TO.N,Earth*%
X130530000Y-83000000D03*
%TD*%
D12*
%TO.P,R13,1*%
%TO.N,SPI:SDO*%
X146190000Y-87937500D03*
%TO.P,R13,2*%
%TO.N,Net-(U2-12_MISO_MQSL)*%
X146190000Y-89762500D03*
%TD*%
%TO.P,R11,1*%
%TO.N,SPI:CS_CNVST*%
X151270000Y-87937500D03*
%TO.P,R11,2*%
%TO.N,Net-(U2-10_CS_MQSR)*%
X151270000Y-89762500D03*
%TD*%
%TO.P,R3,1*%
%TO.N,Net-(J3-Pin_4)*%
X174130000Y-87937500D03*
%TO.P,R3,2*%
%TO.N,Net-(U2-1_TX1_CTX2_MISO1)*%
X174130000Y-89762500D03*
%TD*%
D22*
%TO.P,H3,1,1*%
%TO.N,Earth*%
X106000000Y-125000000D03*
D23*
X106000000Y-125000000D03*
%TD*%
D19*
%TO.P,J5,1,Pin_1*%
%TO.N,Earth*%
X163455000Y-83000000D03*
D20*
%TO.P,J5,2,Pin_2*%
%TO.N,CCD:CLK*%
X160915000Y-83000000D03*
%TO.P,J5,3,Pin_3*%
%TO.N,CCD:ICG*%
X158375000Y-83000000D03*
%TO.P,J5,4,Pin_4*%
%TO.N,CCD:SH*%
X155835000Y-83000000D03*
%TO.P,J5,5,Pin_5*%
%TO.N,CCD:SPR*%
X153295000Y-83000000D03*
%TD*%
D19*
%TO.P,J9,1,Pin_1*%
%TO.N,Earth*%
X130420000Y-116510000D03*
D20*
%TO.P,J9,2,Pin_2*%
%TO.N,SPI1:SDI*%
X127880000Y-116510000D03*
%TO.P,J9,3,Pin_3*%
%TO.N,SPI1:CLK*%
X125340000Y-116510000D03*
%TO.P,J9,4,Pin_4*%
%TO.N,SPI1:SDO*%
X122800000Y-116510000D03*
%TO.P,J9,5,Pin_5*%
%TO.N,SPI1\u005C:CS_CNVST*%
X120260000Y-116510000D03*
%TO.P,J9,6,Pin_6*%
%TO.N,Earth*%
X117720000Y-116510000D03*
%TD*%
D15*
%TO.P,C7,1*%
%TO.N,/5V_IN*%
X177610000Y-115235000D03*
%TO.P,C7,2*%
%TO.N,Earth*%
X177610000Y-117135000D03*
%TD*%
D16*
%TO.P,R14,1*%
%TO.N,SPI:CLK*%
X144347500Y-110100000D03*
%TO.P,R14,2*%
%TO.N,Net-(U2-13_SCK_LED)*%
X146172500Y-110100000D03*
%TD*%
D19*
%TO.P,JP1,1,A*%
%TO.N,+3.3V*%
X154710000Y-119015000D03*
D20*
%TO.P,JP1,2,C*%
%TO.N,+3.3V_SPI*%
X154710000Y-116475000D03*
%TO.P,JP1,3,B*%
%TO.N,3.3V_T4*%
X154710000Y-113935000D03*
%TD*%
D30*
%TO.P,D1,1,K*%
%TO.N,Earth*%
X148770000Y-115610000D03*
%TO.P,D1,2,A*%
%TO.N,3.3V_T4*%
X146870000Y-115610000D03*
%TO.P,D1,3,K*%
%TO.N,Net-(U2-17_A3_TX4_SDA1)*%
X147820000Y-117485000D03*
%TD*%
D22*
%TO.P,H2,1,1*%
%TO.N,Earth*%
X178000000Y-75000000D03*
D23*
X178000000Y-75000000D03*
%TD*%
D28*
%TO.P,R21,1*%
%TO.N,Net-(J10-Pin_5)*%
X142720000Y-121300000D03*
%TO.P,R21,2*%
%TO.N,Net-(U2-15_A1_RX3_SPDIF_IN)*%
X142720000Y-119475000D03*
%TD*%
D31*
%TO.P,C2,1*%
%TO.N,+3.3V*%
X162302500Y-119850000D03*
%TO.P,C2,2*%
%TO.N,Earth*%
X164202500Y-119850000D03*
%TD*%
D32*
%TO.P,C6,1*%
%TO.N,+5V*%
X174000000Y-120615000D03*
%TO.P,C6,2*%
%TO.N,Earth*%
X172100000Y-120615000D03*
%TD*%
D10*
%TO.P,J6,1,Pin_1*%
%TO.N,+3.3V_SPI*%
X117810000Y-76250000D03*
D11*
%TO.P,J6,2,Pin_2*%
%TO.N,Earth*%
X117810000Y-73710000D03*
%TO.P,J6,3,Pin_3*%
%TO.N,SPI:SDI*%
X120350000Y-76250000D03*
%TO.P,J6,4,Pin_4*%
%TO.N,Earth*%
X120350000Y-73710000D03*
%TO.P,J6,5,Pin_5*%
%TO.N,SPI:CLK*%
X122890000Y-76250000D03*
%TO.P,J6,6,Pin_6*%
%TO.N,Earth*%
X122890000Y-73710000D03*
%TO.P,J6,7,Pin_7*%
%TO.N,SPI:SDO*%
X125430000Y-76250000D03*
%TO.P,J6,8,Pin_8*%
%TO.N,Earth*%
X125430000Y-73710000D03*
%TO.P,J6,9,Pin_9*%
%TO.N,SPI:CS_CNVST*%
X127970000Y-76250000D03*
%TO.P,J6,10,Pin_10*%
%TO.N,Earth*%
X127970000Y-73710000D03*
%TO.P,J6,11,Pin_11*%
%TO.N,+3.3V_SPI*%
X130510000Y-76250000D03*
%TO.P,J6,12,Pin_12*%
%TO.N,Earth*%
X130510000Y-73710000D03*
%TD*%
D30*
%TO.P,D3,1,K*%
%TO.N,Earth*%
X141190000Y-115610000D03*
%TO.P,D3,2,A*%
%TO.N,3.3V_T4*%
X139290000Y-115610000D03*
%TO.P,D3,3,K*%
%TO.N,Net-(U2-15_A1_RX3_SPDIF_IN)*%
X140240000Y-117485000D03*
%TD*%
D31*
%TO.P,C4,1*%
%TO.N,+3.3V_SPI*%
X134520000Y-83480000D03*
%TO.P,C4,2*%
%TO.N,Earth*%
X136420000Y-83480000D03*
%TD*%
D19*
%TO.P,J3,1,Pin_1*%
%TO.N,Earth*%
X178280000Y-81860000D03*
D20*
%TO.P,J3,2,Pin_2*%
%TO.N,Net-(J3-Pin_2)*%
X178280000Y-84400000D03*
%TO.P,J3,3,Pin_3*%
%TO.N,Earth*%
X175740000Y-81860000D03*
%TO.P,J3,4,Pin_4*%
%TO.N,Net-(J3-Pin_4)*%
X175740000Y-84400000D03*
%TO.P,J3,5,Pin_5*%
%TO.N,Earth*%
X173200000Y-81860000D03*
%TO.P,J3,6,Pin_6*%
%TO.N,Net-(J3-Pin_6)*%
X173200000Y-84400000D03*
%TO.P,J3,7,Pin_7*%
%TO.N,Earth*%
X170660000Y-81860000D03*
%TO.P,J3,8,Pin_8*%
%TO.N,Net-(J3-Pin_8)*%
X170660000Y-84400000D03*
%TO.P,J3,9,Pin_9*%
%TO.N,Earth*%
X168120000Y-81860000D03*
%TO.P,J3,10,Pin_10*%
%TO.N,Net-(J3-Pin_10)*%
X168120000Y-84400000D03*
%TD*%
D33*
%TO.P,U3,1,IN*%
%TO.N,+5V*%
X164577500Y-117640000D03*
%TO.P,U3,2,GND*%
%TO.N,Earth*%
X164577500Y-116690000D03*
%TO.P,U3,3,EN*%
%TO.N,+5V*%
X164577500Y-115740000D03*
%TO.P,U3,4,BP*%
%TO.N,Net-(U3-BP)*%
X162302500Y-115740000D03*
%TO.P,U3,5,OUT*%
%TO.N,+3.3V*%
X162302500Y-117640000D03*
%TD*%
D15*
%TO.P,C5,1*%
%TO.N,+5V*%
X166780000Y-117640000D03*
%TO.P,C5,2*%
%TO.N,Earth*%
X166780000Y-119540000D03*
%TD*%
D34*
%TO.N,+3.3V*%
X160960000Y-119850000D03*
D35*
%TO.N,Earth*%
X137300000Y-114127500D03*
X166090000Y-116010000D03*
X148770000Y-114127500D03*
X110790000Y-83610000D03*
X141190000Y-114127500D03*
X170780000Y-120615000D03*
X144910000Y-114127500D03*
X136420000Y-81970000D03*
X168250000Y-119540000D03*
X110790000Y-119670000D03*
X164200000Y-121240000D03*
X177610000Y-118400000D03*
X158830000Y-117480000D03*
D34*
%TO.N,/5V_IN*%
X180000000Y-113750000D03*
%TO.N,+5V*%
X169000000Y-117640000D03*
X174010000Y-122200000D03*
D35*
%TO.N,Net-(U2-14_A0_TX3_SPDIF_OUT)*%
X136342500Y-112870000D03*
%TO.N,SPI:SDI*%
X148730000Y-86380000D03*
X144390000Y-80340000D03*
%TO.N,SPI:SDO*%
X146150000Y-85070000D03*
%TO.N,+3.3V_SPI*%
X110790000Y-81710000D03*
D34*
X150670000Y-119520000D03*
D35*
X110790000Y-117770000D03*
X134520000Y-81970000D03*
%TO.N,SPI:CLK*%
X143115000Y-84715000D03*
%TO.N,SPI:CS_CNVST*%
X151270000Y-86460000D03*
%TO.N,SPI1:SDO*%
X139550000Y-110030000D03*
%TO.N,SPI1\u005C:CS_CNVST*%
X130550000Y-111060000D03*
%TO.N,Net-(J3-Pin_10)*%
X153850000Y-86500000D03*
%TO.N,3.3V_T4*%
X146870000Y-114127500D03*
X116370000Y-110860000D03*
X139290000Y-114127500D03*
X135392500Y-114127500D03*
X143012500Y-114127500D03*
%TD*%
D36*
%TO.N,+3.3V*%
X162302500Y-117640000D02*
X162302500Y-119850000D01*
D37*
X160960000Y-119850000D02*
X162302500Y-119850000D01*
D36*
%TO.N,Earth*%
X177610000Y-117135000D02*
X177610000Y-118400000D01*
D38*
X164202500Y-121237500D02*
X164200000Y-121240000D01*
X141190000Y-115610000D02*
X141190000Y-114127500D01*
D39*
X166780000Y-119540000D02*
X168250000Y-119540000D01*
D38*
X137102500Y-114247500D02*
X137110000Y-114240000D01*
D39*
X158830000Y-117480000D02*
X158837500Y-117472500D01*
D40*
X165410000Y-116690000D02*
X164577500Y-116690000D01*
D39*
X164202500Y-119850000D02*
X164202500Y-121237500D01*
X136420000Y-83480000D02*
X136420000Y-81970000D01*
D36*
X172100000Y-120615000D02*
X170780000Y-120615000D01*
D40*
X166090000Y-116010000D02*
X165410000Y-116690000D01*
D38*
X144912500Y-115552500D02*
X144912500Y-114130000D01*
D39*
X109280000Y-119670000D02*
X110790000Y-119670000D01*
X158837500Y-117472500D02*
X160160000Y-117472500D01*
D38*
X148770000Y-115610000D02*
X148770000Y-114127500D01*
X137292500Y-115608200D02*
X137292500Y-114135000D01*
D39*
X109280000Y-83610000D02*
X110790000Y-83610000D01*
D38*
X144722500Y-114242500D02*
X144720000Y-114240000D01*
D37*
%TO.N,/5V_IN*%
X177610000Y-115235000D02*
X174015000Y-115235000D01*
X177610000Y-115235000D02*
X178515000Y-115235000D01*
X174015000Y-115235000D02*
X174000000Y-115250000D01*
X178515000Y-115235000D02*
X180000000Y-113750000D01*
D40*
X174000000Y-115250000D02*
X171312500Y-115250000D01*
X171312500Y-115250000D02*
X170700000Y-115862500D01*
%TO.N,+5V*%
X171312500Y-118300000D02*
X170700000Y-117687500D01*
D37*
X174000000Y-120615000D02*
X174000000Y-122190000D01*
X174000000Y-118300000D02*
X174000000Y-120615000D01*
D40*
X174000000Y-118300000D02*
X171312500Y-118300000D01*
D38*
X163380000Y-116275001D02*
X163380000Y-117180000D01*
X164577500Y-115740000D02*
X163915001Y-115740000D01*
X163915001Y-115740000D02*
X163380000Y-116275001D01*
D40*
X164577500Y-117640000D02*
X166740000Y-117640000D01*
D37*
X166780000Y-117640000D02*
X169000000Y-117640000D01*
D38*
X163840000Y-117640000D02*
X164577500Y-117640000D01*
D37*
X174000000Y-122190000D02*
X174010000Y-122200000D01*
D38*
X163380000Y-117180000D02*
X163840000Y-117640000D01*
%TO.N,Net-(U2-17_A3_TX4_SDA1)*%
X147800000Y-119475000D02*
X147800000Y-117505000D01*
X147800000Y-117505000D02*
X147820000Y-117485000D01*
X149380000Y-111930000D02*
X152040000Y-111930000D01*
X152040000Y-111930000D02*
X156350000Y-107620000D01*
X147820000Y-113490000D02*
X149380000Y-111930000D01*
X147820000Y-117485000D02*
X147820000Y-113490000D01*
%TO.N,Net-(U2-16_A2_RX4_SCL1)*%
X148950000Y-111060000D02*
X151310000Y-111060000D01*
X145260000Y-119475000D02*
X145260000Y-118725000D01*
X145260000Y-118725000D02*
X143962500Y-117427500D01*
X143962500Y-113627500D02*
X144870000Y-112720000D01*
X143962500Y-117427500D02*
X143962500Y-113627500D01*
X151310000Y-111060000D02*
X153810000Y-108560000D01*
X144870000Y-112720000D02*
X147290000Y-112720000D01*
X153810000Y-108560000D02*
X153810000Y-107620000D01*
X147290000Y-112720000D02*
X148950000Y-111060000D01*
%TO.N,Net-(U2-15_A1_RX3_SPDIF_IN)*%
X140510000Y-112870000D02*
X141340000Y-112040000D01*
X146750000Y-112040000D02*
X148610000Y-110180000D01*
X140240000Y-113290000D02*
X140510000Y-113020000D01*
X142720000Y-119475000D02*
X142720000Y-118750000D01*
X149950000Y-110180000D02*
X151270000Y-108860000D01*
X141455000Y-117485000D02*
X140240000Y-117485000D01*
X140510000Y-113020000D02*
X140510000Y-112870000D01*
X140240000Y-117485000D02*
X140240000Y-113290000D01*
X142720000Y-118750000D02*
X141455000Y-117485000D01*
X141340000Y-112040000D02*
X146750000Y-112040000D01*
X151270000Y-108860000D02*
X151270000Y-107620000D01*
X148610000Y-110180000D02*
X149950000Y-110180000D01*
%TO.N,Net-(U2-14_A0_TX3_SPDIF_OUT)*%
X140180000Y-119475000D02*
X138188200Y-117483200D01*
X138188200Y-117483200D02*
X136342500Y-117483200D01*
X136342500Y-117483200D02*
X136342500Y-112870000D01*
%TO.N,CCD:SPR*%
X153295000Y-84305000D02*
X156350000Y-87360000D01*
X153295000Y-83000000D02*
X153295000Y-81605000D01*
X158370000Y-78380000D02*
X159130000Y-77620000D01*
X153295000Y-81605000D02*
X156520000Y-78380000D01*
X153295000Y-83000000D02*
X153295000Y-84305000D01*
X156520000Y-78380000D02*
X158370000Y-78380000D01*
X156350000Y-87360000D02*
X156350000Y-87937500D01*
X159130000Y-77620000D02*
X159130000Y-76250000D01*
%TO.N,SPI:SDI*%
X146430000Y-78300000D02*
X146430000Y-76250000D01*
X144390000Y-80340000D02*
X146430000Y-78300000D01*
X120370000Y-76270000D02*
X120350000Y-76250000D01*
X120370000Y-83000000D02*
X120370000Y-76270000D01*
X148730000Y-86380000D02*
X148730000Y-87937500D01*
%TO.N,CCD:SH*%
X161670000Y-77475000D02*
X161670000Y-76250000D01*
X155835000Y-83000000D02*
X155835000Y-84355000D01*
X155835000Y-84355000D02*
X158890000Y-87410000D01*
X155835000Y-83000000D02*
X155835000Y-81725000D01*
X155835000Y-81725000D02*
X158390000Y-79170000D01*
X158390000Y-79170000D02*
X159975000Y-79170000D01*
X158890000Y-87410000D02*
X158890000Y-87937500D01*
X159975000Y-79170000D02*
X161670000Y-77475000D01*
%TO.N,CCD:CLK*%
X161620000Y-81070000D02*
X160915000Y-81775000D01*
X160915000Y-84135000D02*
X163970000Y-87190000D01*
X160915000Y-83000000D02*
X160915000Y-84135000D01*
X163280000Y-81070000D02*
X161620000Y-81070000D01*
X160915000Y-81775000D02*
X160915000Y-83000000D01*
X166750000Y-76250000D02*
X166750000Y-77600000D01*
X166750000Y-77600000D02*
X163280000Y-81070000D01*
X163970000Y-87190000D02*
X163970000Y-87937500D01*
%TO.N,CCD:ICG*%
X161430000Y-87500000D02*
X161430000Y-87937500D01*
X164210000Y-77645000D02*
X164210000Y-76250000D01*
X159730000Y-80280000D02*
X161575000Y-80280000D01*
X158375000Y-84445000D02*
X161430000Y-87500000D01*
X161575000Y-80280000D02*
X164210000Y-77645000D01*
X158375000Y-83000000D02*
X158375000Y-84445000D01*
X158375000Y-81635000D02*
X159730000Y-80280000D01*
X158375000Y-83000000D02*
X158375000Y-81635000D01*
%TO.N,SPI:SDO*%
X125430000Y-76250000D02*
X125430000Y-82980000D01*
X146150000Y-85070000D02*
X146190000Y-85110000D01*
X146150000Y-83740000D02*
X151510000Y-78380000D01*
X125430000Y-82980000D02*
X125450000Y-83000000D01*
X146190000Y-85110000D02*
X146190000Y-87937500D01*
X146150000Y-85070000D02*
X146150000Y-83740000D01*
X151510000Y-78380000D02*
X151510000Y-76250000D01*
D39*
%TO.N,+3.3V_SPI*%
X109280000Y-117770000D02*
X110790000Y-117770000D01*
D41*
X150670000Y-119520000D02*
X150670000Y-118450000D01*
X150670000Y-118450000D02*
X152645000Y-116475000D01*
X152645000Y-116475000D02*
X154710000Y-116475000D01*
D39*
X109280000Y-81710000D02*
X110790000Y-81710000D01*
X134520000Y-83480000D02*
X134520000Y-81970000D01*
D38*
%TO.N,SPI:CLK*%
X122910000Y-83000000D02*
X122910000Y-76270000D01*
X142400000Y-85430000D02*
X142400000Y-88990000D01*
X143190000Y-110100000D02*
X144347500Y-110100000D01*
X142390000Y-109300000D02*
X143190000Y-110100000D01*
X122910000Y-76270000D02*
X122890000Y-76250000D01*
X143115000Y-84715000D02*
X142400000Y-85430000D01*
X142390000Y-89000000D02*
X142390000Y-109300000D01*
X143115000Y-84715000D02*
X148970000Y-78860000D01*
X142400000Y-88990000D02*
X142390000Y-89000000D01*
X148970000Y-78860000D02*
X148970000Y-76250000D01*
%TO.N,SPI:CS_CNVST*%
X151270000Y-86460000D02*
X151270000Y-87937500D01*
X151270000Y-81350000D02*
X154050000Y-78570000D01*
X151270000Y-86460000D02*
X151270000Y-81350000D01*
X127990000Y-76270000D02*
X127970000Y-76250000D01*
X127990000Y-83000000D02*
X127990000Y-76270000D01*
X154050000Y-78570000D02*
X154050000Y-76250000D01*
%TO.N,Net-(J10-Pin_3)*%
X145260000Y-125125000D02*
X145260000Y-121300000D01*
%TO.N,SPI1:SDI*%
X137320000Y-90890000D02*
X137420000Y-90790000D01*
X130870000Y-103820000D02*
X135680000Y-103820000D01*
X127880000Y-123230000D02*
X127860000Y-123250000D01*
X127880000Y-116510000D02*
X127880000Y-123230000D01*
X137420000Y-90790000D02*
X137420000Y-90560000D01*
X127880000Y-116510000D02*
X127880000Y-111050000D01*
X129680000Y-109250000D02*
X129680000Y-105010000D01*
X129680000Y-105010000D02*
X130870000Y-103820000D01*
X137320000Y-102180000D02*
X137320000Y-90890000D01*
X135680000Y-103820000D02*
X137320000Y-102180000D01*
X137420000Y-90560000D02*
X137855200Y-90124800D01*
X137855200Y-90124800D02*
X137855200Y-89300000D01*
X127880000Y-111050000D02*
X129680000Y-109250000D01*
%TO.N,SPI1:CLK*%
X129700000Y-101500000D02*
X127140000Y-104060000D01*
X127140000Y-109250000D02*
X125340000Y-111050000D01*
X125340000Y-116510000D02*
X125340000Y-123230000D01*
X127140000Y-104060000D02*
X127140000Y-109250000D01*
X125340000Y-111050000D02*
X125340000Y-116510000D01*
X131677500Y-89300000D02*
X130270000Y-89300000D01*
X129700000Y-89870000D02*
X129700000Y-101500000D01*
X130270000Y-89300000D02*
X129700000Y-89870000D01*
X125340000Y-123230000D02*
X125320000Y-123250000D01*
%TO.N,SPI1:SDO*%
X137862500Y-110030000D02*
X137852500Y-110040000D01*
X122800000Y-116510000D02*
X122800000Y-123230000D01*
X122800000Y-123230000D02*
X122780000Y-123250000D01*
X139550000Y-110030000D02*
X137862500Y-110030000D01*
%TO.N,SPI1\u005C:CS_CNVST*%
X120260000Y-116510000D02*
X120260000Y-123230000D01*
X131667500Y-110040000D02*
X131570000Y-110040000D01*
X120260000Y-123230000D02*
X120240000Y-123250000D01*
X131570000Y-110040000D02*
X130550000Y-111060000D01*
%TO.N,Net-(U2-0_RX1_CRX2_CS1)*%
X176670000Y-92380000D02*
X176670000Y-89762500D01*
%TO.N,Net-(U2-1_TX1_CTX2_MISO1)*%
X174130000Y-92380000D02*
X174130000Y-89762500D01*
%TO.N,Net-(U2-2_OUT2)*%
X171590000Y-92380000D02*
X171590000Y-89762500D01*
%TO.N,Net-(U2-3_LRCLK2)*%
X169050000Y-92380000D02*
X169050000Y-89762500D01*
%TO.N,Net-(U2-4_BCLK2)*%
X163970000Y-90930000D02*
X163970000Y-92380000D01*
X166240000Y-90930000D02*
X166510000Y-91200000D01*
X163970000Y-90930000D02*
X166240000Y-90930000D01*
X163970000Y-89762500D02*
X163970000Y-90930000D01*
X166510000Y-91200000D02*
X166510000Y-92380000D01*
%TO.N,Net-(U2-6_OUT1D)*%
X161430000Y-92380000D02*
X161430000Y-89762500D01*
%TO.N,Net-(U2-7_RX2_OUT1A)*%
X158890000Y-92380000D02*
X158890000Y-89762500D01*
%TO.N,Net-(U2-8_TX2_IN1)*%
X156350000Y-92380000D02*
X156350000Y-89762500D01*
%TO.N,Net-(U2-9_OUT1C)*%
X153810000Y-92380000D02*
X153810000Y-89762500D01*
%TO.N,Net-(U2-10_CS_MQSR)*%
X151270000Y-92380000D02*
X151270000Y-89762500D01*
%TO.N,Net-(U2-11_MOSI_CTX1)*%
X148730000Y-92380000D02*
X148730000Y-89762500D01*
%TO.N,Net-(U2-12_MISO_MQSL)*%
X146190000Y-92380000D02*
X146190000Y-89762500D01*
%TO.N,Net-(U2-13_SCK_LED)*%
X146190000Y-110082500D02*
X146172500Y-110100000D01*
X146190000Y-107620000D02*
X146190000Y-110082500D01*
%TO.N,Net-(U2-26_A12_MOSI1)*%
X136030000Y-89300200D02*
X136030200Y-89300000D01*
X136157500Y-89350000D02*
X135840000Y-89350000D01*
X136030000Y-92380000D02*
X136030000Y-89300200D01*
%TO.N,Net-(U2-39_MISO1_OUT1A)*%
X136030000Y-110027500D02*
X136027500Y-110030000D01*
X136030000Y-107620000D02*
X136030000Y-110037500D01*
X136030000Y-110037500D02*
X136027500Y-110040000D01*
%TO.N,Net-(U2-27_A13_SCK1)*%
X133490000Y-89312500D02*
X133502500Y-89300000D01*
X133490000Y-92380000D02*
X133490000Y-89312500D01*
%TO.N,Net-(U2-38_CS1_IN1)*%
X133490000Y-107620000D02*
X133490000Y-110037500D01*
X133490000Y-110037500D02*
X133492500Y-110040000D01*
D39*
%TO.N,Net-(U3-BP)*%
X160160000Y-115747500D02*
X162295000Y-115747500D01*
D38*
X162295000Y-115747500D02*
X162302500Y-115740000D01*
%TO.N,Net-(J13-Pin_5)*%
X166510000Y-111550000D02*
X166510000Y-107620000D01*
%TO.N,Net-(J13-Pin_3)*%
X171590000Y-111550000D02*
X171590000Y-107620000D01*
%TO.N,Net-(J13-Pin_4)*%
X169050000Y-111550000D02*
X169050000Y-107620000D01*
%TO.N,Net-(J3-Pin_6)*%
X171590000Y-87937500D02*
X173200000Y-86327500D01*
X173200000Y-86327500D02*
X173200000Y-84400000D01*
%TO.N,Net-(J3-Pin_8)*%
X169050000Y-87937500D02*
X170660000Y-86327500D01*
X170660000Y-86327500D02*
X170660000Y-84400000D01*
%TO.N,Net-(J3-Pin_4)*%
X174130000Y-87937500D02*
X175740000Y-86327500D01*
X175740000Y-86327500D02*
X175740000Y-84400000D01*
%TO.N,Net-(J3-Pin_10)*%
X153810000Y-86540000D02*
X153850000Y-86500000D01*
X153810000Y-87937500D02*
X153810000Y-86540000D01*
%TO.N,Net-(J3-Pin_2)*%
X176670000Y-87937500D02*
X178280000Y-86327500D01*
X178280000Y-86327500D02*
X178280000Y-84400000D01*
%TO.N,Net-(J10-Pin_1)*%
X147800000Y-125125000D02*
X147800000Y-121300000D01*
%TO.N,Net-(J11-Pin_3)*%
X106080000Y-94920000D02*
X120790000Y-94920000D01*
X120790000Y-94920000D02*
X123330000Y-92380000D01*
%TO.N,Net-(J11-Pin_7)*%
X104710000Y-87110000D02*
X137860000Y-87110000D01*
X137860000Y-87110000D02*
X139850000Y-89100000D01*
X103750000Y-104030000D02*
X103750000Y-91360000D01*
X104800000Y-105080000D02*
X103750000Y-104030000D01*
X139850000Y-91100000D02*
X138570000Y-92380000D01*
X103780000Y-91330000D02*
X103780000Y-88040000D01*
X103780000Y-88040000D02*
X104710000Y-87110000D01*
X139850000Y-89100000D02*
X139850000Y-91100000D01*
X106080000Y-105080000D02*
X104800000Y-105080000D01*
%TO.N,Net-(J11-Pin_8)*%
X102470000Y-87790000D02*
X104620000Y-85640000D01*
X102470000Y-105650000D02*
X102470000Y-87790000D01*
X138410000Y-85640000D02*
X141110000Y-88340000D01*
X141110000Y-88340000D02*
X141110000Y-92380000D01*
X105580000Y-107620000D02*
X104440000Y-107620000D01*
X104440000Y-107620000D02*
X102470000Y-105650000D01*
X104620000Y-85640000D02*
X138410000Y-85640000D01*
%TO.N,Net-(J11-Pin_5)*%
X106080000Y-100000000D02*
X120790000Y-100000000D01*
X120790000Y-100000000D02*
X128410000Y-92380000D01*
%TO.N,Net-(J11-Pin_4)*%
X120790000Y-97460000D02*
X125870000Y-92380000D01*
X106080000Y-97460000D02*
X120790000Y-97460000D01*
%TO.N,Net-(J13-Pin_8)*%
X158890000Y-111550000D02*
X158890000Y-107620000D01*
%TO.N,Net-(J13-Pin_7)*%
X161430000Y-111550000D02*
X161430000Y-107620000D01*
%TO.N,Net-(J13-Pin_6)*%
X163970000Y-111550000D02*
X163970000Y-107620000D01*
%TO.N,Net-(J11-Pin_2)*%
X106080000Y-92380000D02*
X120790000Y-92380000D01*
%TO.N,Net-(J10-Pin_7)*%
X140180000Y-125125000D02*
X140180000Y-121300000D01*
%TO.N,Net-(J10-Pin_5)*%
X142720000Y-125125000D02*
X142720000Y-121300000D01*
%TO.N,3.3V_T4*%
X135392500Y-115608200D02*
X135392500Y-114127500D01*
X139290000Y-115610000D02*
X139290000Y-114127500D01*
X174130000Y-111550000D02*
X174130000Y-107620000D01*
X143012500Y-115552500D02*
X143012500Y-114127500D01*
X146870000Y-115610000D02*
X146870000Y-114127500D01*
%TD*%
M02*
