%TF.GenerationSoftware,KiCad,Pcbnew,8.0.6-1.fc40*%
%TF.CreationDate,2024-12-19T20:54:17-05:00*%
%TF.ProjectId,Controller_T41,436f6e74-726f-46c6-9c65-725f5434312e,rev?*%
%TF.SameCoordinates,Original*%
%TF.FileFunction,Legend,Bot*%
%TF.FilePolarity,Positive*%
%FSLAX46Y46*%
G04 Gerber Fmt 4.6, Leading zero omitted, Abs format (unit mm)*
G04 Created by KiCad (PCBNEW 8.0.6-1.fc40) date 2024-12-19 20:54:17*
%MOMM*%
%LPD*%
G01*
G04 APERTURE LIST*
%ADD10C,0.150000*%
G04 APERTURE END LIST*
D10*
X158400839Y-97592368D02*
X158257982Y-97639987D01*
X158257982Y-97639987D02*
X158019887Y-97639987D01*
X158019887Y-97639987D02*
X157924649Y-97592368D01*
X157924649Y-97592368D02*
X157877030Y-97544748D01*
X157877030Y-97544748D02*
X157829411Y-97449510D01*
X157829411Y-97449510D02*
X157829411Y-97354272D01*
X157829411Y-97354272D02*
X157877030Y-97259034D01*
X157877030Y-97259034D02*
X157924649Y-97211415D01*
X157924649Y-97211415D02*
X158019887Y-97163796D01*
X158019887Y-97163796D02*
X158210363Y-97116177D01*
X158210363Y-97116177D02*
X158305601Y-97068558D01*
X158305601Y-97068558D02*
X158353220Y-97020939D01*
X158353220Y-97020939D02*
X158400839Y-96925701D01*
X158400839Y-96925701D02*
X158400839Y-96830463D01*
X158400839Y-96830463D02*
X158353220Y-96735225D01*
X158353220Y-96735225D02*
X158305601Y-96687606D01*
X158305601Y-96687606D02*
X158210363Y-96639987D01*
X158210363Y-96639987D02*
X157972268Y-96639987D01*
X157972268Y-96639987D02*
X157829411Y-96687606D01*
X157400839Y-97639987D02*
X157400839Y-96639987D01*
X157400839Y-96639987D02*
X157019887Y-96639987D01*
X157019887Y-96639987D02*
X156924649Y-96687606D01*
X156924649Y-96687606D02*
X156877030Y-96735225D01*
X156877030Y-96735225D02*
X156829411Y-96830463D01*
X156829411Y-96830463D02*
X156829411Y-96973320D01*
X156829411Y-96973320D02*
X156877030Y-97068558D01*
X156877030Y-97068558D02*
X156924649Y-97116177D01*
X156924649Y-97116177D02*
X157019887Y-97163796D01*
X157019887Y-97163796D02*
X157400839Y-97163796D01*
X156400839Y-97639987D02*
X156400839Y-96639987D01*
X155162744Y-97639987D02*
X155162744Y-96639987D01*
X154686554Y-96973320D02*
X154686554Y-97639987D01*
X154686554Y-97068558D02*
X154638935Y-97020939D01*
X154638935Y-97020939D02*
X154543697Y-96973320D01*
X154543697Y-96973320D02*
X154400840Y-96973320D01*
X154400840Y-96973320D02*
X154305602Y-97020939D01*
X154305602Y-97020939D02*
X154257983Y-97116177D01*
X154257983Y-97116177D02*
X154257983Y-97639987D01*
X153829411Y-97592368D02*
X153734173Y-97639987D01*
X153734173Y-97639987D02*
X153543697Y-97639987D01*
X153543697Y-97639987D02*
X153448459Y-97592368D01*
X153448459Y-97592368D02*
X153400840Y-97497129D01*
X153400840Y-97497129D02*
X153400840Y-97449510D01*
X153400840Y-97449510D02*
X153448459Y-97354272D01*
X153448459Y-97354272D02*
X153543697Y-97306653D01*
X153543697Y-97306653D02*
X153686554Y-97306653D01*
X153686554Y-97306653D02*
X153781792Y-97259034D01*
X153781792Y-97259034D02*
X153829411Y-97163796D01*
X153829411Y-97163796D02*
X153829411Y-97116177D01*
X153829411Y-97116177D02*
X153781792Y-97020939D01*
X153781792Y-97020939D02*
X153686554Y-96973320D01*
X153686554Y-96973320D02*
X153543697Y-96973320D01*
X153543697Y-96973320D02*
X153448459Y-97020939D01*
X153115125Y-96973320D02*
X152734173Y-96973320D01*
X152972268Y-96639987D02*
X152972268Y-97497129D01*
X152972268Y-97497129D02*
X152924649Y-97592368D01*
X152924649Y-97592368D02*
X152829411Y-97639987D01*
X152829411Y-97639987D02*
X152734173Y-97639987D01*
X152400839Y-97639987D02*
X152400839Y-96973320D01*
X152400839Y-97163796D02*
X152353220Y-97068558D01*
X152353220Y-97068558D02*
X152305601Y-97020939D01*
X152305601Y-97020939D02*
X152210363Y-96973320D01*
X152210363Y-96973320D02*
X152115125Y-96973320D01*
X151353220Y-96973320D02*
X151353220Y-97639987D01*
X151781791Y-96973320D02*
X151781791Y-97497129D01*
X151781791Y-97497129D02*
X151734172Y-97592368D01*
X151734172Y-97592368D02*
X151638934Y-97639987D01*
X151638934Y-97639987D02*
X151496077Y-97639987D01*
X151496077Y-97639987D02*
X151400839Y-97592368D01*
X151400839Y-97592368D02*
X151353220Y-97544748D01*
X150877029Y-97639987D02*
X150877029Y-96973320D01*
X150877029Y-97068558D02*
X150829410Y-97020939D01*
X150829410Y-97020939D02*
X150734172Y-96973320D01*
X150734172Y-96973320D02*
X150591315Y-96973320D01*
X150591315Y-96973320D02*
X150496077Y-97020939D01*
X150496077Y-97020939D02*
X150448458Y-97116177D01*
X150448458Y-97116177D02*
X150448458Y-97639987D01*
X150448458Y-97116177D02*
X150400839Y-97020939D01*
X150400839Y-97020939D02*
X150305601Y-96973320D01*
X150305601Y-96973320D02*
X150162744Y-96973320D01*
X150162744Y-96973320D02*
X150067505Y-97020939D01*
X150067505Y-97020939D02*
X150019886Y-97116177D01*
X150019886Y-97116177D02*
X150019886Y-97639987D01*
X149162744Y-97592368D02*
X149257982Y-97639987D01*
X149257982Y-97639987D02*
X149448458Y-97639987D01*
X149448458Y-97639987D02*
X149543696Y-97592368D01*
X149543696Y-97592368D02*
X149591315Y-97497129D01*
X149591315Y-97497129D02*
X149591315Y-97116177D01*
X149591315Y-97116177D02*
X149543696Y-97020939D01*
X149543696Y-97020939D02*
X149448458Y-96973320D01*
X149448458Y-96973320D02*
X149257982Y-96973320D01*
X149257982Y-96973320D02*
X149162744Y-97020939D01*
X149162744Y-97020939D02*
X149115125Y-97116177D01*
X149115125Y-97116177D02*
X149115125Y-97211415D01*
X149115125Y-97211415D02*
X149591315Y-97306653D01*
X148686553Y-96973320D02*
X148686553Y-97639987D01*
X148686553Y-97068558D02*
X148638934Y-97020939D01*
X148638934Y-97020939D02*
X148543696Y-96973320D01*
X148543696Y-96973320D02*
X148400839Y-96973320D01*
X148400839Y-96973320D02*
X148305601Y-97020939D01*
X148305601Y-97020939D02*
X148257982Y-97116177D01*
X148257982Y-97116177D02*
X148257982Y-97639987D01*
X147924648Y-96973320D02*
X147543696Y-96973320D01*
X147781791Y-96639987D02*
X147781791Y-97497129D01*
X147781791Y-97497129D02*
X147734172Y-97592368D01*
X147734172Y-97592368D02*
X147638934Y-97639987D01*
X147638934Y-97639987D02*
X147543696Y-97639987D01*
X146781791Y-97639987D02*
X146781791Y-97116177D01*
X146781791Y-97116177D02*
X146829410Y-97020939D01*
X146829410Y-97020939D02*
X146924648Y-96973320D01*
X146924648Y-96973320D02*
X147115124Y-96973320D01*
X147115124Y-96973320D02*
X147210362Y-97020939D01*
X146781791Y-97592368D02*
X146877029Y-97639987D01*
X146877029Y-97639987D02*
X147115124Y-97639987D01*
X147115124Y-97639987D02*
X147210362Y-97592368D01*
X147210362Y-97592368D02*
X147257981Y-97497129D01*
X147257981Y-97497129D02*
X147257981Y-97401891D01*
X147257981Y-97401891D02*
X147210362Y-97306653D01*
X147210362Y-97306653D02*
X147115124Y-97259034D01*
X147115124Y-97259034D02*
X146877029Y-97259034D01*
X146877029Y-97259034D02*
X146781791Y-97211415D01*
X146448457Y-96973320D02*
X146067505Y-96973320D01*
X146305600Y-96639987D02*
X146305600Y-97497129D01*
X146305600Y-97497129D02*
X146257981Y-97592368D01*
X146257981Y-97592368D02*
X146162743Y-97639987D01*
X146162743Y-97639987D02*
X146067505Y-97639987D01*
X145734171Y-97639987D02*
X145734171Y-96973320D01*
X145734171Y-96639987D02*
X145781790Y-96687606D01*
X145781790Y-96687606D02*
X145734171Y-96735225D01*
X145734171Y-96735225D02*
X145686552Y-96687606D01*
X145686552Y-96687606D02*
X145734171Y-96639987D01*
X145734171Y-96639987D02*
X145734171Y-96735225D01*
X145115124Y-97639987D02*
X145210362Y-97592368D01*
X145210362Y-97592368D02*
X145257981Y-97544748D01*
X145257981Y-97544748D02*
X145305600Y-97449510D01*
X145305600Y-97449510D02*
X145305600Y-97163796D01*
X145305600Y-97163796D02*
X145257981Y-97068558D01*
X145257981Y-97068558D02*
X145210362Y-97020939D01*
X145210362Y-97020939D02*
X145115124Y-96973320D01*
X145115124Y-96973320D02*
X144972267Y-96973320D01*
X144972267Y-96973320D02*
X144877029Y-97020939D01*
X144877029Y-97020939D02*
X144829410Y-97068558D01*
X144829410Y-97068558D02*
X144781791Y-97163796D01*
X144781791Y-97163796D02*
X144781791Y-97449510D01*
X144781791Y-97449510D02*
X144829410Y-97544748D01*
X144829410Y-97544748D02*
X144877029Y-97592368D01*
X144877029Y-97592368D02*
X144972267Y-97639987D01*
X144972267Y-97639987D02*
X145115124Y-97639987D01*
X144353219Y-96973320D02*
X144353219Y-97639987D01*
X144353219Y-97068558D02*
X144305600Y-97020939D01*
X144305600Y-97020939D02*
X144210362Y-96973320D01*
X144210362Y-96973320D02*
X144067505Y-96973320D01*
X144067505Y-96973320D02*
X143972267Y-97020939D01*
X143972267Y-97020939D02*
X143924648Y-97116177D01*
X143924648Y-97116177D02*
X143924648Y-97639987D01*
X142686552Y-97639987D02*
X142686552Y-96639987D01*
X142686552Y-96639987D02*
X142305600Y-96639987D01*
X142305600Y-96639987D02*
X142210362Y-96687606D01*
X142210362Y-96687606D02*
X142162743Y-96735225D01*
X142162743Y-96735225D02*
X142115124Y-96830463D01*
X142115124Y-96830463D02*
X142115124Y-96973320D01*
X142115124Y-96973320D02*
X142162743Y-97068558D01*
X142162743Y-97068558D02*
X142210362Y-97116177D01*
X142210362Y-97116177D02*
X142305600Y-97163796D01*
X142305600Y-97163796D02*
X142686552Y-97163796D01*
X141686552Y-97639987D02*
X141686552Y-96973320D01*
X141686552Y-97163796D02*
X141638933Y-97068558D01*
X141638933Y-97068558D02*
X141591314Y-97020939D01*
X141591314Y-97020939D02*
X141496076Y-96973320D01*
X141496076Y-96973320D02*
X141400838Y-96973320D01*
X140924647Y-97639987D02*
X141019885Y-97592368D01*
X141019885Y-97592368D02*
X141067504Y-97544748D01*
X141067504Y-97544748D02*
X141115123Y-97449510D01*
X141115123Y-97449510D02*
X141115123Y-97163796D01*
X141115123Y-97163796D02*
X141067504Y-97068558D01*
X141067504Y-97068558D02*
X141019885Y-97020939D01*
X141019885Y-97020939D02*
X140924647Y-96973320D01*
X140924647Y-96973320D02*
X140781790Y-96973320D01*
X140781790Y-96973320D02*
X140686552Y-97020939D01*
X140686552Y-97020939D02*
X140638933Y-97068558D01*
X140638933Y-97068558D02*
X140591314Y-97163796D01*
X140591314Y-97163796D02*
X140591314Y-97449510D01*
X140591314Y-97449510D02*
X140638933Y-97544748D01*
X140638933Y-97544748D02*
X140686552Y-97592368D01*
X140686552Y-97592368D02*
X140781790Y-97639987D01*
X140781790Y-97639987D02*
X140924647Y-97639987D01*
X140162742Y-96973320D02*
X140162742Y-97830463D01*
X140162742Y-97830463D02*
X140210361Y-97925701D01*
X140210361Y-97925701D02*
X140305599Y-97973320D01*
X140305599Y-97973320D02*
X140353218Y-97973320D01*
X140162742Y-96639987D02*
X140210361Y-96687606D01*
X140210361Y-96687606D02*
X140162742Y-96735225D01*
X140162742Y-96735225D02*
X140115123Y-96687606D01*
X140115123Y-96687606D02*
X140162742Y-96639987D01*
X140162742Y-96639987D02*
X140162742Y-96735225D01*
X139305600Y-97592368D02*
X139400838Y-97639987D01*
X139400838Y-97639987D02*
X139591314Y-97639987D01*
X139591314Y-97639987D02*
X139686552Y-97592368D01*
X139686552Y-97592368D02*
X139734171Y-97497129D01*
X139734171Y-97497129D02*
X139734171Y-97116177D01*
X139734171Y-97116177D02*
X139686552Y-97020939D01*
X139686552Y-97020939D02*
X139591314Y-96973320D01*
X139591314Y-96973320D02*
X139400838Y-96973320D01*
X139400838Y-96973320D02*
X139305600Y-97020939D01*
X139305600Y-97020939D02*
X139257981Y-97116177D01*
X139257981Y-97116177D02*
X139257981Y-97211415D01*
X139257981Y-97211415D02*
X139734171Y-97306653D01*
X138400838Y-97592368D02*
X138496076Y-97639987D01*
X138496076Y-97639987D02*
X138686552Y-97639987D01*
X138686552Y-97639987D02*
X138781790Y-97592368D01*
X138781790Y-97592368D02*
X138829409Y-97544748D01*
X138829409Y-97544748D02*
X138877028Y-97449510D01*
X138877028Y-97449510D02*
X138877028Y-97163796D01*
X138877028Y-97163796D02*
X138829409Y-97068558D01*
X138829409Y-97068558D02*
X138781790Y-97020939D01*
X138781790Y-97020939D02*
X138686552Y-96973320D01*
X138686552Y-96973320D02*
X138496076Y-96973320D01*
X138496076Y-96973320D02*
X138400838Y-97020939D01*
X138115123Y-96973320D02*
X137734171Y-96973320D01*
X137972266Y-96639987D02*
X137972266Y-97497129D01*
X137972266Y-97497129D02*
X137924647Y-97592368D01*
X137924647Y-97592368D02*
X137829409Y-97639987D01*
X137829409Y-97639987D02*
X137734171Y-97639987D01*
X157781792Y-99154692D02*
X157829411Y-99202312D01*
X157829411Y-99202312D02*
X157972268Y-99249931D01*
X157972268Y-99249931D02*
X158067506Y-99249931D01*
X158067506Y-99249931D02*
X158210363Y-99202312D01*
X158210363Y-99202312D02*
X158305601Y-99107073D01*
X158305601Y-99107073D02*
X158353220Y-99011835D01*
X158353220Y-99011835D02*
X158400839Y-98821359D01*
X158400839Y-98821359D02*
X158400839Y-98678502D01*
X158400839Y-98678502D02*
X158353220Y-98488026D01*
X158353220Y-98488026D02*
X158305601Y-98392788D01*
X158305601Y-98392788D02*
X158210363Y-98297550D01*
X158210363Y-98297550D02*
X158067506Y-98249931D01*
X158067506Y-98249931D02*
X157972268Y-98249931D01*
X157972268Y-98249931D02*
X157829411Y-98297550D01*
X157829411Y-98297550D02*
X157781792Y-98345169D01*
X157210363Y-99249931D02*
X157305601Y-99202312D01*
X157305601Y-99202312D02*
X157353220Y-99154692D01*
X157353220Y-99154692D02*
X157400839Y-99059454D01*
X157400839Y-99059454D02*
X157400839Y-98773740D01*
X157400839Y-98773740D02*
X157353220Y-98678502D01*
X157353220Y-98678502D02*
X157305601Y-98630883D01*
X157305601Y-98630883D02*
X157210363Y-98583264D01*
X157210363Y-98583264D02*
X157067506Y-98583264D01*
X157067506Y-98583264D02*
X156972268Y-98630883D01*
X156972268Y-98630883D02*
X156924649Y-98678502D01*
X156924649Y-98678502D02*
X156877030Y-98773740D01*
X156877030Y-98773740D02*
X156877030Y-99059454D01*
X156877030Y-99059454D02*
X156924649Y-99154692D01*
X156924649Y-99154692D02*
X156972268Y-99202312D01*
X156972268Y-99202312D02*
X157067506Y-99249931D01*
X157067506Y-99249931D02*
X157210363Y-99249931D01*
X156448458Y-98583264D02*
X156448458Y-99249931D01*
X156448458Y-98678502D02*
X156400839Y-98630883D01*
X156400839Y-98630883D02*
X156305601Y-98583264D01*
X156305601Y-98583264D02*
X156162744Y-98583264D01*
X156162744Y-98583264D02*
X156067506Y-98630883D01*
X156067506Y-98630883D02*
X156019887Y-98726121D01*
X156019887Y-98726121D02*
X156019887Y-99249931D01*
X155686553Y-98583264D02*
X155305601Y-98583264D01*
X155543696Y-98249931D02*
X155543696Y-99107073D01*
X155543696Y-99107073D02*
X155496077Y-99202312D01*
X155496077Y-99202312D02*
X155400839Y-99249931D01*
X155400839Y-99249931D02*
X155305601Y-99249931D01*
X154972267Y-99249931D02*
X154972267Y-98583264D01*
X154972267Y-98773740D02*
X154924648Y-98678502D01*
X154924648Y-98678502D02*
X154877029Y-98630883D01*
X154877029Y-98630883D02*
X154781791Y-98583264D01*
X154781791Y-98583264D02*
X154686553Y-98583264D01*
X154210362Y-99249931D02*
X154305600Y-99202312D01*
X154305600Y-99202312D02*
X154353219Y-99154692D01*
X154353219Y-99154692D02*
X154400838Y-99059454D01*
X154400838Y-99059454D02*
X154400838Y-98773740D01*
X154400838Y-98773740D02*
X154353219Y-98678502D01*
X154353219Y-98678502D02*
X154305600Y-98630883D01*
X154305600Y-98630883D02*
X154210362Y-98583264D01*
X154210362Y-98583264D02*
X154067505Y-98583264D01*
X154067505Y-98583264D02*
X153972267Y-98630883D01*
X153972267Y-98630883D02*
X153924648Y-98678502D01*
X153924648Y-98678502D02*
X153877029Y-98773740D01*
X153877029Y-98773740D02*
X153877029Y-99059454D01*
X153877029Y-99059454D02*
X153924648Y-99154692D01*
X153924648Y-99154692D02*
X153972267Y-99202312D01*
X153972267Y-99202312D02*
X154067505Y-99249931D01*
X154067505Y-99249931D02*
X154210362Y-99249931D01*
X153305600Y-99249931D02*
X153400838Y-99202312D01*
X153400838Y-99202312D02*
X153448457Y-99107073D01*
X153448457Y-99107073D02*
X153448457Y-98249931D01*
X152543695Y-99202312D02*
X152638933Y-99249931D01*
X152638933Y-99249931D02*
X152829409Y-99249931D01*
X152829409Y-99249931D02*
X152924647Y-99202312D01*
X152924647Y-99202312D02*
X152972266Y-99107073D01*
X152972266Y-99107073D02*
X152972266Y-98726121D01*
X152972266Y-98726121D02*
X152924647Y-98630883D01*
X152924647Y-98630883D02*
X152829409Y-98583264D01*
X152829409Y-98583264D02*
X152638933Y-98583264D01*
X152638933Y-98583264D02*
X152543695Y-98630883D01*
X152543695Y-98630883D02*
X152496076Y-98726121D01*
X152496076Y-98726121D02*
X152496076Y-98821359D01*
X152496076Y-98821359D02*
X152972266Y-98916597D01*
X152067504Y-99249931D02*
X152067504Y-98583264D01*
X152067504Y-98773740D02*
X152019885Y-98678502D01*
X152019885Y-98678502D02*
X151972266Y-98630883D01*
X151972266Y-98630883D02*
X151877028Y-98583264D01*
X151877028Y-98583264D02*
X151781790Y-98583264D01*
X150781789Y-98583264D02*
X150591313Y-99249931D01*
X150591313Y-99249931D02*
X150400837Y-98773740D01*
X150400837Y-98773740D02*
X150210361Y-99249931D01*
X150210361Y-99249931D02*
X150019885Y-98583264D01*
X148924647Y-98202312D02*
X149781789Y-99488026D01*
X147972265Y-98249931D02*
X147400837Y-98249931D01*
X147686551Y-99249931D02*
X147686551Y-98249931D01*
X146686551Y-99202312D02*
X146781789Y-99249931D01*
X146781789Y-99249931D02*
X146972265Y-99249931D01*
X146972265Y-99249931D02*
X147067503Y-99202312D01*
X147067503Y-99202312D02*
X147115122Y-99107073D01*
X147115122Y-99107073D02*
X147115122Y-98726121D01*
X147115122Y-98726121D02*
X147067503Y-98630883D01*
X147067503Y-98630883D02*
X146972265Y-98583264D01*
X146972265Y-98583264D02*
X146781789Y-98583264D01*
X146781789Y-98583264D02*
X146686551Y-98630883D01*
X146686551Y-98630883D02*
X146638932Y-98726121D01*
X146638932Y-98726121D02*
X146638932Y-98821359D01*
X146638932Y-98821359D02*
X147115122Y-98916597D01*
X145829408Y-99202312D02*
X145924646Y-99249931D01*
X145924646Y-99249931D02*
X146115122Y-99249931D01*
X146115122Y-99249931D02*
X146210360Y-99202312D01*
X146210360Y-99202312D02*
X146257979Y-99107073D01*
X146257979Y-99107073D02*
X146257979Y-98726121D01*
X146257979Y-98726121D02*
X146210360Y-98630883D01*
X146210360Y-98630883D02*
X146115122Y-98583264D01*
X146115122Y-98583264D02*
X145924646Y-98583264D01*
X145924646Y-98583264D02*
X145829408Y-98630883D01*
X145829408Y-98630883D02*
X145781789Y-98726121D01*
X145781789Y-98726121D02*
X145781789Y-98821359D01*
X145781789Y-98821359D02*
X146257979Y-98916597D01*
X145353217Y-98583264D02*
X145353217Y-99249931D01*
X145353217Y-98678502D02*
X145305598Y-98630883D01*
X145305598Y-98630883D02*
X145210360Y-98583264D01*
X145210360Y-98583264D02*
X145067503Y-98583264D01*
X145067503Y-98583264D02*
X144972265Y-98630883D01*
X144972265Y-98630883D02*
X144924646Y-98726121D01*
X144924646Y-98726121D02*
X144924646Y-99249931D01*
X144496074Y-99202312D02*
X144400836Y-99249931D01*
X144400836Y-99249931D02*
X144210360Y-99249931D01*
X144210360Y-99249931D02*
X144115122Y-99202312D01*
X144115122Y-99202312D02*
X144067503Y-99107073D01*
X144067503Y-99107073D02*
X144067503Y-99059454D01*
X144067503Y-99059454D02*
X144115122Y-98964216D01*
X144115122Y-98964216D02*
X144210360Y-98916597D01*
X144210360Y-98916597D02*
X144353217Y-98916597D01*
X144353217Y-98916597D02*
X144448455Y-98868978D01*
X144448455Y-98868978D02*
X144496074Y-98773740D01*
X144496074Y-98773740D02*
X144496074Y-98726121D01*
X144496074Y-98726121D02*
X144448455Y-98630883D01*
X144448455Y-98630883D02*
X144353217Y-98583264D01*
X144353217Y-98583264D02*
X144210360Y-98583264D01*
X144210360Y-98583264D02*
X144115122Y-98630883D01*
X143734169Y-98583264D02*
X143496074Y-99249931D01*
X143257979Y-98583264D02*
X143496074Y-99249931D01*
X143496074Y-99249931D02*
X143591312Y-99488026D01*
X143591312Y-99488026D02*
X143638931Y-99535645D01*
X143638931Y-99535645D02*
X143734169Y-99583264D01*
X141686550Y-98583264D02*
X141686550Y-99249931D01*
X141924645Y-98202312D02*
X142162740Y-98916597D01*
X142162740Y-98916597D02*
X141543693Y-98916597D01*
X141162740Y-99154692D02*
X141115121Y-99202312D01*
X141115121Y-99202312D02*
X141162740Y-99249931D01*
X141162740Y-99249931D02*
X141210359Y-99202312D01*
X141210359Y-99202312D02*
X141162740Y-99154692D01*
X141162740Y-99154692D02*
X141162740Y-99249931D01*
X140162741Y-99249931D02*
X140734169Y-99249931D01*
X140448455Y-99249931D02*
X140448455Y-98249931D01*
X140448455Y-98249931D02*
X140543693Y-98392788D01*
X140543693Y-98392788D02*
X140638931Y-98488026D01*
X140638931Y-98488026D02*
X140734169Y-98535645D01*
X158353220Y-100859875D02*
X158353220Y-99859875D01*
X158353220Y-99859875D02*
X158115125Y-99859875D01*
X158115125Y-99859875D02*
X157972268Y-99907494D01*
X157972268Y-99907494D02*
X157877030Y-100002732D01*
X157877030Y-100002732D02*
X157829411Y-100097970D01*
X157829411Y-100097970D02*
X157781792Y-100288446D01*
X157781792Y-100288446D02*
X157781792Y-100431303D01*
X157781792Y-100431303D02*
X157829411Y-100621779D01*
X157829411Y-100621779D02*
X157877030Y-100717017D01*
X157877030Y-100717017D02*
X157972268Y-100812256D01*
X157972268Y-100812256D02*
X158115125Y-100859875D01*
X158115125Y-100859875D02*
X158353220Y-100859875D01*
X157353220Y-100859875D02*
X157353220Y-100193208D01*
X157353220Y-100383684D02*
X157305601Y-100288446D01*
X157305601Y-100288446D02*
X157257982Y-100240827D01*
X157257982Y-100240827D02*
X157162744Y-100193208D01*
X157162744Y-100193208D02*
X157067506Y-100193208D01*
X155972267Y-100859875D02*
X155972267Y-99859875D01*
X155972267Y-99859875D02*
X155638934Y-100574160D01*
X155638934Y-100574160D02*
X155305601Y-99859875D01*
X155305601Y-99859875D02*
X155305601Y-100859875D01*
X153496077Y-100764636D02*
X153543696Y-100812256D01*
X153543696Y-100812256D02*
X153686553Y-100859875D01*
X153686553Y-100859875D02*
X153781791Y-100859875D01*
X153781791Y-100859875D02*
X153924648Y-100812256D01*
X153924648Y-100812256D02*
X154019886Y-100717017D01*
X154019886Y-100717017D02*
X154067505Y-100621779D01*
X154067505Y-100621779D02*
X154115124Y-100431303D01*
X154115124Y-100431303D02*
X154115124Y-100288446D01*
X154115124Y-100288446D02*
X154067505Y-100097970D01*
X154067505Y-100097970D02*
X154019886Y-100002732D01*
X154019886Y-100002732D02*
X153924648Y-99907494D01*
X153924648Y-99907494D02*
X153781791Y-99859875D01*
X153781791Y-99859875D02*
X153686553Y-99859875D01*
X153686553Y-99859875D02*
X153543696Y-99907494D01*
X153543696Y-99907494D02*
X153496077Y-99955113D01*
X152305600Y-100859875D02*
X152305600Y-99859875D01*
X152305600Y-99859875D02*
X151734172Y-100859875D01*
X151734172Y-100859875D02*
X151734172Y-99859875D01*
X150877029Y-100812256D02*
X150972267Y-100859875D01*
X150972267Y-100859875D02*
X151162743Y-100859875D01*
X151162743Y-100859875D02*
X151257981Y-100812256D01*
X151257981Y-100812256D02*
X151305600Y-100717017D01*
X151305600Y-100717017D02*
X151305600Y-100336065D01*
X151305600Y-100336065D02*
X151257981Y-100240827D01*
X151257981Y-100240827D02*
X151162743Y-100193208D01*
X151162743Y-100193208D02*
X150972267Y-100193208D01*
X150972267Y-100193208D02*
X150877029Y-100240827D01*
X150877029Y-100240827D02*
X150829410Y-100336065D01*
X150829410Y-100336065D02*
X150829410Y-100431303D01*
X150829410Y-100431303D02*
X151305600Y-100526541D01*
X150257981Y-100859875D02*
X150353219Y-100812256D01*
X150353219Y-100812256D02*
X150400838Y-100717017D01*
X150400838Y-100717017D02*
X150400838Y-99859875D01*
X149924647Y-100812256D02*
X149829409Y-100859875D01*
X149829409Y-100859875D02*
X149638933Y-100859875D01*
X149638933Y-100859875D02*
X149543695Y-100812256D01*
X149543695Y-100812256D02*
X149496076Y-100717017D01*
X149496076Y-100717017D02*
X149496076Y-100669398D01*
X149496076Y-100669398D02*
X149543695Y-100574160D01*
X149543695Y-100574160D02*
X149638933Y-100526541D01*
X149638933Y-100526541D02*
X149781790Y-100526541D01*
X149781790Y-100526541D02*
X149877028Y-100478922D01*
X149877028Y-100478922D02*
X149924647Y-100383684D01*
X149924647Y-100383684D02*
X149924647Y-100336065D01*
X149924647Y-100336065D02*
X149877028Y-100240827D01*
X149877028Y-100240827D02*
X149781790Y-100193208D01*
X149781790Y-100193208D02*
X149638933Y-100193208D01*
X149638933Y-100193208D02*
X149543695Y-100240827D01*
X148924647Y-100859875D02*
X149019885Y-100812256D01*
X149019885Y-100812256D02*
X149067504Y-100764636D01*
X149067504Y-100764636D02*
X149115123Y-100669398D01*
X149115123Y-100669398D02*
X149115123Y-100383684D01*
X149115123Y-100383684D02*
X149067504Y-100288446D01*
X149067504Y-100288446D02*
X149019885Y-100240827D01*
X149019885Y-100240827D02*
X148924647Y-100193208D01*
X148924647Y-100193208D02*
X148781790Y-100193208D01*
X148781790Y-100193208D02*
X148686552Y-100240827D01*
X148686552Y-100240827D02*
X148638933Y-100288446D01*
X148638933Y-100288446D02*
X148591314Y-100383684D01*
X148591314Y-100383684D02*
X148591314Y-100669398D01*
X148591314Y-100669398D02*
X148638933Y-100764636D01*
X148638933Y-100764636D02*
X148686552Y-100812256D01*
X148686552Y-100812256D02*
X148781790Y-100859875D01*
X148781790Y-100859875D02*
X148924647Y-100859875D01*
X148162742Y-100193208D02*
X148162742Y-100859875D01*
X148162742Y-100288446D02*
X148115123Y-100240827D01*
X148115123Y-100240827D02*
X148019885Y-100193208D01*
X148019885Y-100193208D02*
X147877028Y-100193208D01*
X147877028Y-100193208D02*
X147781790Y-100240827D01*
X147781790Y-100240827D02*
X147734171Y-100336065D01*
X147734171Y-100336065D02*
X147734171Y-100859875D01*
X146210361Y-101240827D02*
X146257980Y-101193208D01*
X146257980Y-101193208D02*
X146353218Y-101050351D01*
X146353218Y-101050351D02*
X146400837Y-100955113D01*
X146400837Y-100955113D02*
X146448456Y-100812256D01*
X146448456Y-100812256D02*
X146496075Y-100574160D01*
X146496075Y-100574160D02*
X146496075Y-100383684D01*
X146496075Y-100383684D02*
X146448456Y-100145589D01*
X146448456Y-100145589D02*
X146400837Y-100002732D01*
X146400837Y-100002732D02*
X146353218Y-99907494D01*
X146353218Y-99907494D02*
X146257980Y-99764636D01*
X146257980Y-99764636D02*
X146210361Y-99717017D01*
X145400837Y-100812256D02*
X145496075Y-100859875D01*
X145496075Y-100859875D02*
X145686551Y-100859875D01*
X145686551Y-100859875D02*
X145781789Y-100812256D01*
X145781789Y-100812256D02*
X145829408Y-100764636D01*
X145829408Y-100764636D02*
X145877027Y-100669398D01*
X145877027Y-100669398D02*
X145877027Y-100383684D01*
X145877027Y-100383684D02*
X145829408Y-100288446D01*
X145829408Y-100288446D02*
X145781789Y-100240827D01*
X145781789Y-100240827D02*
X145686551Y-100193208D01*
X145686551Y-100193208D02*
X145496075Y-100193208D01*
X145496075Y-100193208D02*
X145400837Y-100240827D01*
X145067503Y-101240827D02*
X145019884Y-101193208D01*
X145019884Y-101193208D02*
X144924646Y-101050351D01*
X144924646Y-101050351D02*
X144877027Y-100955113D01*
X144877027Y-100955113D02*
X144829408Y-100812256D01*
X144829408Y-100812256D02*
X144781789Y-100574160D01*
X144781789Y-100574160D02*
X144781789Y-100383684D01*
X144781789Y-100383684D02*
X144829408Y-100145589D01*
X144829408Y-100145589D02*
X144877027Y-100002732D01*
X144877027Y-100002732D02*
X144924646Y-99907494D01*
X144924646Y-99907494D02*
X145019884Y-99764636D01*
X145019884Y-99764636D02*
X145067503Y-99717017D01*
X143591312Y-99955113D02*
X143543693Y-99907494D01*
X143543693Y-99907494D02*
X143448455Y-99859875D01*
X143448455Y-99859875D02*
X143210360Y-99859875D01*
X143210360Y-99859875D02*
X143115122Y-99907494D01*
X143115122Y-99907494D02*
X143067503Y-99955113D01*
X143067503Y-99955113D02*
X143019884Y-100050351D01*
X143019884Y-100050351D02*
X143019884Y-100145589D01*
X143019884Y-100145589D02*
X143067503Y-100288446D01*
X143067503Y-100288446D02*
X143638931Y-100859875D01*
X143638931Y-100859875D02*
X143019884Y-100859875D01*
X142400836Y-99859875D02*
X142305598Y-99859875D01*
X142305598Y-99859875D02*
X142210360Y-99907494D01*
X142210360Y-99907494D02*
X142162741Y-99955113D01*
X142162741Y-99955113D02*
X142115122Y-100050351D01*
X142115122Y-100050351D02*
X142067503Y-100240827D01*
X142067503Y-100240827D02*
X142067503Y-100478922D01*
X142067503Y-100478922D02*
X142115122Y-100669398D01*
X142115122Y-100669398D02*
X142162741Y-100764636D01*
X142162741Y-100764636D02*
X142210360Y-100812256D01*
X142210360Y-100812256D02*
X142305598Y-100859875D01*
X142305598Y-100859875D02*
X142400836Y-100859875D01*
X142400836Y-100859875D02*
X142496074Y-100812256D01*
X142496074Y-100812256D02*
X142543693Y-100764636D01*
X142543693Y-100764636D02*
X142591312Y-100669398D01*
X142591312Y-100669398D02*
X142638931Y-100478922D01*
X142638931Y-100478922D02*
X142638931Y-100240827D01*
X142638931Y-100240827D02*
X142591312Y-100050351D01*
X142591312Y-100050351D02*
X142543693Y-99955113D01*
X142543693Y-99955113D02*
X142496074Y-99907494D01*
X142496074Y-99907494D02*
X142400836Y-99859875D01*
X141686550Y-99955113D02*
X141638931Y-99907494D01*
X141638931Y-99907494D02*
X141543693Y-99859875D01*
X141543693Y-99859875D02*
X141305598Y-99859875D01*
X141305598Y-99859875D02*
X141210360Y-99907494D01*
X141210360Y-99907494D02*
X141162741Y-99955113D01*
X141162741Y-99955113D02*
X141115122Y-100050351D01*
X141115122Y-100050351D02*
X141115122Y-100145589D01*
X141115122Y-100145589D02*
X141162741Y-100288446D01*
X141162741Y-100288446D02*
X141734169Y-100859875D01*
X141734169Y-100859875D02*
X141115122Y-100859875D01*
X140257979Y-100193208D02*
X140257979Y-100859875D01*
X140496074Y-99812256D02*
X140734169Y-100526541D01*
X140734169Y-100526541D02*
X140115122Y-100526541D01*
X158353220Y-102469819D02*
X158353220Y-101469819D01*
X158353220Y-101469819D02*
X157972268Y-101469819D01*
X157972268Y-101469819D02*
X157877030Y-101517438D01*
X157877030Y-101517438D02*
X157829411Y-101565057D01*
X157829411Y-101565057D02*
X157781792Y-101660295D01*
X157781792Y-101660295D02*
X157781792Y-101803152D01*
X157781792Y-101803152D02*
X157829411Y-101898390D01*
X157829411Y-101898390D02*
X157877030Y-101946009D01*
X157877030Y-101946009D02*
X157972268Y-101993628D01*
X157972268Y-101993628D02*
X158353220Y-101993628D01*
X156924649Y-102469819D02*
X156924649Y-101946009D01*
X156924649Y-101946009D02*
X156972268Y-101850771D01*
X156972268Y-101850771D02*
X157067506Y-101803152D01*
X157067506Y-101803152D02*
X157257982Y-101803152D01*
X157257982Y-101803152D02*
X157353220Y-101850771D01*
X156924649Y-102422200D02*
X157019887Y-102469819D01*
X157019887Y-102469819D02*
X157257982Y-102469819D01*
X157257982Y-102469819D02*
X157353220Y-102422200D01*
X157353220Y-102422200D02*
X157400839Y-102326961D01*
X157400839Y-102326961D02*
X157400839Y-102231723D01*
X157400839Y-102231723D02*
X157353220Y-102136485D01*
X157353220Y-102136485D02*
X157257982Y-102088866D01*
X157257982Y-102088866D02*
X157019887Y-102088866D01*
X157019887Y-102088866D02*
X156924649Y-102041247D01*
X156591315Y-101803152D02*
X156210363Y-101803152D01*
X156448458Y-101469819D02*
X156448458Y-102326961D01*
X156448458Y-102326961D02*
X156400839Y-102422200D01*
X156400839Y-102422200D02*
X156305601Y-102469819D01*
X156305601Y-102469819D02*
X156210363Y-102469819D01*
X155496077Y-102422200D02*
X155591315Y-102469819D01*
X155591315Y-102469819D02*
X155781791Y-102469819D01*
X155781791Y-102469819D02*
X155877029Y-102422200D01*
X155877029Y-102422200D02*
X155924648Y-102326961D01*
X155924648Y-102326961D02*
X155924648Y-101946009D01*
X155924648Y-101946009D02*
X155877029Y-101850771D01*
X155877029Y-101850771D02*
X155781791Y-101803152D01*
X155781791Y-101803152D02*
X155591315Y-101803152D01*
X155591315Y-101803152D02*
X155496077Y-101850771D01*
X155496077Y-101850771D02*
X155448458Y-101946009D01*
X155448458Y-101946009D02*
X155448458Y-102041247D01*
X155448458Y-102041247D02*
X155924648Y-102136485D01*
X155019886Y-101803152D02*
X155019886Y-102469819D01*
X155019886Y-101898390D02*
X154972267Y-101850771D01*
X154972267Y-101850771D02*
X154877029Y-101803152D01*
X154877029Y-101803152D02*
X154734172Y-101803152D01*
X154734172Y-101803152D02*
X154638934Y-101850771D01*
X154638934Y-101850771D02*
X154591315Y-101946009D01*
X154591315Y-101946009D02*
X154591315Y-102469819D01*
X154257981Y-101803152D02*
X153877029Y-101803152D01*
X154115124Y-101469819D02*
X154115124Y-102326961D01*
X154115124Y-102326961D02*
X154067505Y-102422200D01*
X154067505Y-102422200D02*
X153972267Y-102469819D01*
X153972267Y-102469819D02*
X153877029Y-102469819D01*
X153591314Y-102422200D02*
X153496076Y-102469819D01*
X153496076Y-102469819D02*
X153305600Y-102469819D01*
X153305600Y-102469819D02*
X153210362Y-102422200D01*
X153210362Y-102422200D02*
X153162743Y-102326961D01*
X153162743Y-102326961D02*
X153162743Y-102279342D01*
X153162743Y-102279342D02*
X153210362Y-102184104D01*
X153210362Y-102184104D02*
X153305600Y-102136485D01*
X153305600Y-102136485D02*
X153448457Y-102136485D01*
X153448457Y-102136485D02*
X153543695Y-102088866D01*
X153543695Y-102088866D02*
X153591314Y-101993628D01*
X153591314Y-101993628D02*
X153591314Y-101946009D01*
X153591314Y-101946009D02*
X153543695Y-101850771D01*
X153543695Y-101850771D02*
X153448457Y-101803152D01*
X153448457Y-101803152D02*
X153305600Y-101803152D01*
X153305600Y-101803152D02*
X153210362Y-101850771D01*
X151972266Y-102469819D02*
X151972266Y-101469819D01*
X151972266Y-101469819D02*
X151591314Y-101469819D01*
X151591314Y-101469819D02*
X151496076Y-101517438D01*
X151496076Y-101517438D02*
X151448457Y-101565057D01*
X151448457Y-101565057D02*
X151400838Y-101660295D01*
X151400838Y-101660295D02*
X151400838Y-101803152D01*
X151400838Y-101803152D02*
X151448457Y-101898390D01*
X151448457Y-101898390D02*
X151496076Y-101946009D01*
X151496076Y-101946009D02*
X151591314Y-101993628D01*
X151591314Y-101993628D02*
X151972266Y-101993628D01*
X150591314Y-102422200D02*
X150686552Y-102469819D01*
X150686552Y-102469819D02*
X150877028Y-102469819D01*
X150877028Y-102469819D02*
X150972266Y-102422200D01*
X150972266Y-102422200D02*
X151019885Y-102326961D01*
X151019885Y-102326961D02*
X151019885Y-101946009D01*
X151019885Y-101946009D02*
X150972266Y-101850771D01*
X150972266Y-101850771D02*
X150877028Y-101803152D01*
X150877028Y-101803152D02*
X150686552Y-101803152D01*
X150686552Y-101803152D02*
X150591314Y-101850771D01*
X150591314Y-101850771D02*
X150543695Y-101946009D01*
X150543695Y-101946009D02*
X150543695Y-102041247D01*
X150543695Y-102041247D02*
X151019885Y-102136485D01*
X150115123Y-101803152D02*
X150115123Y-102469819D01*
X150115123Y-101898390D02*
X150067504Y-101850771D01*
X150067504Y-101850771D02*
X149972266Y-101803152D01*
X149972266Y-101803152D02*
X149829409Y-101803152D01*
X149829409Y-101803152D02*
X149734171Y-101850771D01*
X149734171Y-101850771D02*
X149686552Y-101946009D01*
X149686552Y-101946009D02*
X149686552Y-102469819D01*
X148781790Y-102469819D02*
X148781790Y-101469819D01*
X148781790Y-102422200D02*
X148877028Y-102469819D01*
X148877028Y-102469819D02*
X149067504Y-102469819D01*
X149067504Y-102469819D02*
X149162742Y-102422200D01*
X149162742Y-102422200D02*
X149210361Y-102374580D01*
X149210361Y-102374580D02*
X149257980Y-102279342D01*
X149257980Y-102279342D02*
X149257980Y-101993628D01*
X149257980Y-101993628D02*
X149210361Y-101898390D01*
X149210361Y-101898390D02*
X149162742Y-101850771D01*
X149162742Y-101850771D02*
X149067504Y-101803152D01*
X149067504Y-101803152D02*
X148877028Y-101803152D01*
X148877028Y-101803152D02*
X148781790Y-101850771D01*
X148305599Y-102469819D02*
X148305599Y-101803152D01*
X148305599Y-101469819D02*
X148353218Y-101517438D01*
X148353218Y-101517438D02*
X148305599Y-101565057D01*
X148305599Y-101565057D02*
X148257980Y-101517438D01*
X148257980Y-101517438D02*
X148305599Y-101469819D01*
X148305599Y-101469819D02*
X148305599Y-101565057D01*
X147829409Y-101803152D02*
X147829409Y-102469819D01*
X147829409Y-101898390D02*
X147781790Y-101850771D01*
X147781790Y-101850771D02*
X147686552Y-101803152D01*
X147686552Y-101803152D02*
X147543695Y-101803152D01*
X147543695Y-101803152D02*
X147448457Y-101850771D01*
X147448457Y-101850771D02*
X147400838Y-101946009D01*
X147400838Y-101946009D02*
X147400838Y-102469819D01*
X146496076Y-101803152D02*
X146496076Y-102612676D01*
X146496076Y-102612676D02*
X146543695Y-102707914D01*
X146543695Y-102707914D02*
X146591314Y-102755533D01*
X146591314Y-102755533D02*
X146686552Y-102803152D01*
X146686552Y-102803152D02*
X146829409Y-102803152D01*
X146829409Y-102803152D02*
X146924647Y-102755533D01*
X146496076Y-102422200D02*
X146591314Y-102469819D01*
X146591314Y-102469819D02*
X146781790Y-102469819D01*
X146781790Y-102469819D02*
X146877028Y-102422200D01*
X146877028Y-102422200D02*
X146924647Y-102374580D01*
X146924647Y-102374580D02*
X146972266Y-102279342D01*
X146972266Y-102279342D02*
X146972266Y-101993628D01*
X146972266Y-101993628D02*
X146924647Y-101898390D01*
X146924647Y-101898390D02*
X146877028Y-101850771D01*
X146877028Y-101850771D02*
X146781790Y-101803152D01*
X146781790Y-101803152D02*
X146591314Y-101803152D01*
X146591314Y-101803152D02*
X146496076Y-101850771D01*
M02*
