%TF.GenerationSoftware,KiCad,Pcbnew,8.0.6-1.fc40*%
%TF.CreationDate,2024-12-19T20:54:17-05:00*%
%TF.ProjectId,Controller_T41,436f6e74-726f-46c6-9c65-725f5434312e,rev?*%
%TF.SameCoordinates,Original*%
%TF.FileFunction,Soldermask,Top*%
%TF.FilePolarity,Negative*%
%FSLAX46Y46*%
G04 Gerber Fmt 4.6, Leading zero omitted, Abs format (unit mm)*
G04 Created by KiCad (PCBNEW 8.0.6-1.fc40) date 2024-12-19 20:54:17*
%MOMM*%
%LPD*%
G01*
G04 APERTURE LIST*
G04 Aperture macros list*
%AMRoundRect*
0 Rectangle with rounded corners*
0 $1 Rounding radius*
0 $2 $3 $4 $5 $6 $7 $8 $9 X,Y pos of 4 corners*
0 Add a 4 corners polygon primitive as box body*
4,1,4,$2,$3,$4,$5,$6,$7,$8,$9,$2,$3,0*
0 Add four circle primitives for the rounded corners*
1,1,$1+$1,$2,$3*
1,1,$1+$1,$4,$5*
1,1,$1+$1,$6,$7*
1,1,$1+$1,$8,$9*
0 Add four rect primitives between the rounded corners*
20,1,$1+$1,$2,$3,$4,$5,0*
20,1,$1+$1,$4,$5,$6,$7,0*
20,1,$1+$1,$6,$7,$8,$9,0*
20,1,$1+$1,$8,$9,$2,$3,0*%
G04 Aperture macros list end*
%ADD10RoundRect,0.250000X0.600000X-0.600000X0.600000X0.600000X-0.600000X0.600000X-0.600000X-0.600000X0*%
%ADD11C,1.700000*%
%ADD12RoundRect,0.237500X-0.237500X0.250000X-0.237500X-0.250000X0.237500X-0.250000X0.237500X0.250000X0*%
%ADD13R,1.755000X1.755000*%
%ADD14C,1.755000*%
%ADD15RoundRect,0.250000X-0.475000X0.250000X-0.475000X-0.250000X0.475000X-0.250000X0.475000X0.250000X0*%
%ADD16RoundRect,0.237500X-0.250000X-0.237500X0.250000X-0.237500X0.250000X0.237500X-0.250000X0.237500X0*%
%ADD17RoundRect,0.250000X-0.600000X0.600000X-0.600000X-0.600000X0.600000X-0.600000X0.600000X0.600000X0*%
%ADD18RoundRect,0.237500X-0.237500X0.300000X-0.237500X-0.300000X0.237500X-0.300000X0.237500X0.300000X0*%
%ADD19R,1.700000X1.700000*%
%ADD20O,1.700000X1.700000*%
%ADD21RoundRect,0.237500X0.250000X0.237500X-0.250000X0.237500X-0.250000X-0.237500X0.250000X-0.237500X0*%
%ADD22C,3.600000*%
%ADD23C,5.600000*%
%ADD24R,1.600000X1.600000*%
%ADD25C,1.600000*%
%ADD26R,1.300000X1.300000*%
%ADD27C,1.300000*%
%ADD28RoundRect,0.237500X0.237500X-0.250000X0.237500X0.250000X-0.237500X0.250000X-0.237500X-0.250000X0*%
%ADD29R,3.600000X1.500000*%
%ADD30RoundRect,0.150000X-0.150000X0.587500X-0.150000X-0.587500X0.150000X-0.587500X0.150000X0.587500X0*%
%ADD31RoundRect,0.250000X-0.250000X-0.475000X0.250000X-0.475000X0.250000X0.475000X-0.250000X0.475000X0*%
%ADD32RoundRect,0.250000X0.250000X0.475000X-0.250000X0.475000X-0.250000X-0.475000X0.250000X-0.475000X0*%
%ADD33RoundRect,0.150000X0.512500X0.150000X-0.512500X0.150000X-0.512500X-0.150000X0.512500X-0.150000X0*%
G04 APERTURE END LIST*
D10*
%TO.C,J4*%
X143890000Y-76250000D03*
D11*
X143890000Y-73710000D03*
X146430000Y-76250000D03*
X146430000Y-73710000D03*
X148970000Y-76250000D03*
X148970000Y-73710000D03*
X151510000Y-76250000D03*
X151510000Y-73710000D03*
X154050000Y-76250000D03*
X154050000Y-73710000D03*
X156590000Y-76250000D03*
X156590000Y-73710000D03*
X159130000Y-76250000D03*
X159130000Y-73710000D03*
X161670000Y-76250000D03*
X161670000Y-73710000D03*
X164210000Y-76250000D03*
X164210000Y-73710000D03*
X166750000Y-76250000D03*
X166750000Y-73710000D03*
%TD*%
D12*
%TO.C,R4*%
X171590000Y-87937500D03*
X171590000Y-89762500D03*
%TD*%
%TO.C,R8*%
X158890000Y-87937500D03*
X158890000Y-89762500D03*
%TD*%
D13*
%TO.C,J2*%
X156390000Y-125440000D03*
D14*
X158930000Y-125440000D03*
%TD*%
D15*
%TO.C,C1*%
X109280000Y-117770000D03*
X109280000Y-119670000D03*
%TD*%
D16*
%TO.C,R16*%
X131677500Y-89300000D03*
X133502500Y-89300000D03*
%TD*%
D17*
%TO.C,J8*%
X130400000Y-123250000D03*
D11*
X130400000Y-125790000D03*
X127860000Y-123250000D03*
X127860000Y-125790000D03*
X125320000Y-123250000D03*
X125320000Y-125790000D03*
X122780000Y-123250000D03*
X122780000Y-125790000D03*
X120240000Y-123250000D03*
X120240000Y-125790000D03*
X117700000Y-123250000D03*
X117700000Y-125790000D03*
%TD*%
D12*
%TO.C,R5*%
X169050000Y-87937500D03*
X169050000Y-89762500D03*
%TD*%
D18*
%TO.C,C8*%
X160160000Y-115747500D03*
X160160000Y-117472500D03*
%TD*%
D15*
%TO.C,C3*%
X109280000Y-81710000D03*
X109280000Y-83610000D03*
%TD*%
D19*
%TO.C,J12*%
X111480000Y-108900000D03*
D20*
X111480000Y-106360000D03*
X111480000Y-103820000D03*
X111480000Y-101280000D03*
X111480000Y-98740000D03*
X111480000Y-96200000D03*
X111480000Y-93660000D03*
X111480000Y-91120000D03*
%TD*%
D12*
%TO.C,R6*%
X163970000Y-87937500D03*
X163970000Y-89762500D03*
%TD*%
D21*
%TO.C,R17*%
X137852500Y-110040000D03*
X136027500Y-110040000D03*
%TD*%
D22*
%TO.C,H1*%
X178000000Y-125000000D03*
D23*
X178000000Y-125000000D03*
%TD*%
D24*
%TO.C,U2*%
X179210000Y-92380000D03*
D25*
X176670000Y-92380000D03*
X174130000Y-92380000D03*
X171590000Y-92380000D03*
X169050000Y-92380000D03*
X166510000Y-92380000D03*
X163970000Y-92380000D03*
X161430000Y-92380000D03*
X158890000Y-92380000D03*
X156350000Y-92380000D03*
X153810000Y-92380000D03*
X151270000Y-92380000D03*
X148730000Y-92380000D03*
X146190000Y-92380000D03*
X143650000Y-92380000D03*
X141110000Y-92380000D03*
X138570000Y-92380000D03*
X136030000Y-92380000D03*
X133490000Y-92380000D03*
X130950000Y-92380000D03*
X128410000Y-92380000D03*
X125870000Y-92380000D03*
X123330000Y-92380000D03*
X120790000Y-92380000D03*
X120790000Y-107620000D03*
X123330000Y-107620000D03*
X125870000Y-107620000D03*
X128410000Y-107620000D03*
X130950000Y-107620000D03*
X133490000Y-107620000D03*
X136030000Y-107620000D03*
X138570000Y-107620000D03*
X141110000Y-107620000D03*
X143650000Y-107620000D03*
X146190000Y-107620000D03*
X148730000Y-107620000D03*
X151270000Y-107620000D03*
X153810000Y-107620000D03*
X156350000Y-107620000D03*
X158890000Y-107620000D03*
X161430000Y-107620000D03*
X163970000Y-107620000D03*
X166510000Y-107620000D03*
X169050000Y-107620000D03*
X171590000Y-107620000D03*
X174130000Y-107620000D03*
X176670000Y-107620000D03*
X179210000Y-107620000D03*
X176670000Y-105080000D03*
X133490000Y-94920000D03*
X133490000Y-97460000D03*
X133490000Y-100000000D03*
X133490000Y-102540000D03*
X133490000Y-105080000D03*
D24*
X172910800Y-95430800D03*
D25*
X170370800Y-95430800D03*
X167830800Y-95430800D03*
X165290800Y-95430800D03*
X162750800Y-95430800D03*
D26*
X166240000Y-105181600D03*
D27*
X166240000Y-103181600D03*
X166240000Y-101181600D03*
X164240000Y-101181600D03*
X164240000Y-103181600D03*
X164240000Y-105181600D03*
X178480000Y-101270000D03*
X178480000Y-98730000D03*
%TD*%
D22*
%TO.C,H4*%
X106000000Y-75000000D03*
D23*
X106000000Y-75000000D03*
%TD*%
D28*
%TO.C,R19*%
X147800000Y-121300000D03*
X147800000Y-119475000D03*
%TD*%
D12*
%TO.C,R7*%
X161430000Y-87937500D03*
X161430000Y-89762500D03*
%TD*%
D29*
%TO.C,L1*%
X174000000Y-115250000D03*
X174000000Y-118300000D03*
%TD*%
D30*
%TO.C,D2*%
X144912500Y-115552500D03*
X143012500Y-115552500D03*
X143962500Y-117427500D03*
%TD*%
D12*
%TO.C,R10*%
X153810000Y-87937500D03*
X153810000Y-89762500D03*
%TD*%
D19*
%TO.C,J13*%
X176670000Y-111550000D03*
D20*
X174130000Y-111550000D03*
X171590000Y-111550000D03*
X169050000Y-111550000D03*
X166510000Y-111550000D03*
X163970000Y-111550000D03*
X161430000Y-111550000D03*
X158890000Y-111550000D03*
%TD*%
D21*
%TO.C,R15*%
X137855200Y-89300000D03*
X136030200Y-89300000D03*
%TD*%
D30*
%TO.C,D4*%
X137292500Y-115608200D03*
X135392500Y-115608200D03*
X136342500Y-117483200D03*
%TD*%
D12*
%TO.C,R12*%
X148730000Y-87937500D03*
X148730000Y-89762500D03*
%TD*%
D19*
%TO.C,J10*%
X147800000Y-125125000D03*
D20*
X147800000Y-127665000D03*
X145260000Y-125125000D03*
X145260000Y-127665000D03*
X142720000Y-125125000D03*
X142720000Y-127665000D03*
X140180000Y-125125000D03*
X140180000Y-127665000D03*
%TD*%
D28*
%TO.C,R20*%
X145260000Y-121300000D03*
X145260000Y-119475000D03*
%TD*%
D12*
%TO.C,R2*%
X176670000Y-87937500D03*
X176670000Y-89762500D03*
%TD*%
D13*
%TO.C,J1*%
X166690000Y-125440000D03*
D14*
X169230000Y-125440000D03*
%TD*%
D12*
%TO.C,R9*%
X156350000Y-87937500D03*
X156350000Y-89762500D03*
%TD*%
D19*
%TO.C,J11*%
X106080000Y-89840000D03*
D20*
X106080000Y-92380000D03*
X106080000Y-94920000D03*
X106080000Y-97460000D03*
X106080000Y-100000000D03*
X106080000Y-102540000D03*
X106080000Y-105080000D03*
X106080000Y-107620000D03*
X106080000Y-110160000D03*
%TD*%
D16*
%TO.C,R18*%
X131667500Y-110040000D03*
X133492500Y-110040000D03*
%TD*%
D28*
%TO.C,R22*%
X140180000Y-121300000D03*
X140180000Y-119475000D03*
%TD*%
D12*
%TO.C,R1*%
X170700000Y-115862500D03*
X170700000Y-117687500D03*
%TD*%
D19*
%TO.C,J7*%
X117830000Y-83000000D03*
D20*
X120370000Y-83000000D03*
X122910000Y-83000000D03*
X125450000Y-83000000D03*
X127990000Y-83000000D03*
X130530000Y-83000000D03*
%TD*%
D12*
%TO.C,R13*%
X146190000Y-87937500D03*
X146190000Y-89762500D03*
%TD*%
%TO.C,R11*%
X151270000Y-87937500D03*
X151270000Y-89762500D03*
%TD*%
%TO.C,R3*%
X174130000Y-87937500D03*
X174130000Y-89762500D03*
%TD*%
D22*
%TO.C,H3*%
X106000000Y-125000000D03*
D23*
X106000000Y-125000000D03*
%TD*%
D19*
%TO.C,J5*%
X163455000Y-83000000D03*
D20*
X160915000Y-83000000D03*
X158375000Y-83000000D03*
X155835000Y-83000000D03*
X153295000Y-83000000D03*
%TD*%
D19*
%TO.C,J9*%
X130420000Y-116510000D03*
D20*
X127880000Y-116510000D03*
X125340000Y-116510000D03*
X122800000Y-116510000D03*
X120260000Y-116510000D03*
X117720000Y-116510000D03*
%TD*%
D15*
%TO.C,C7*%
X177610000Y-115235000D03*
X177610000Y-117135000D03*
%TD*%
D16*
%TO.C,R14*%
X144347500Y-110100000D03*
X146172500Y-110100000D03*
%TD*%
D19*
%TO.C,JP1*%
X154710000Y-119015000D03*
D20*
X154710000Y-116475000D03*
X154710000Y-113935000D03*
%TD*%
D30*
%TO.C,D1*%
X148770000Y-115610000D03*
X146870000Y-115610000D03*
X147820000Y-117485000D03*
%TD*%
D22*
%TO.C,H2*%
X178000000Y-75000000D03*
D23*
X178000000Y-75000000D03*
%TD*%
D28*
%TO.C,R21*%
X142720000Y-121300000D03*
X142720000Y-119475000D03*
%TD*%
D31*
%TO.C,C2*%
X162302500Y-119850000D03*
X164202500Y-119850000D03*
%TD*%
D32*
%TO.C,C6*%
X174000000Y-120615000D03*
X172100000Y-120615000D03*
%TD*%
D10*
%TO.C,J6*%
X117810000Y-76250000D03*
D11*
X117810000Y-73710000D03*
X120350000Y-76250000D03*
X120350000Y-73710000D03*
X122890000Y-76250000D03*
X122890000Y-73710000D03*
X125430000Y-76250000D03*
X125430000Y-73710000D03*
X127970000Y-76250000D03*
X127970000Y-73710000D03*
X130510000Y-76250000D03*
X130510000Y-73710000D03*
%TD*%
D30*
%TO.C,D3*%
X141190000Y-115610000D03*
X139290000Y-115610000D03*
X140240000Y-117485000D03*
%TD*%
D31*
%TO.C,C4*%
X134520000Y-83480000D03*
X136420000Y-83480000D03*
%TD*%
D19*
%TO.C,J3*%
X178280000Y-81860000D03*
D20*
X178280000Y-84400000D03*
X175740000Y-81860000D03*
X175740000Y-84400000D03*
X173200000Y-81860000D03*
X173200000Y-84400000D03*
X170660000Y-81860000D03*
X170660000Y-84400000D03*
X168120000Y-81860000D03*
X168120000Y-84400000D03*
%TD*%
D33*
%TO.C,U3*%
X164577500Y-117640000D03*
X164577500Y-116690000D03*
X164577500Y-115740000D03*
X162302500Y-115740000D03*
X162302500Y-117640000D03*
%TD*%
D15*
%TO.C,C5*%
X166780000Y-117640000D03*
X166780000Y-119540000D03*
%TD*%
M02*
