M48
; DRILL file {KiCad 8.0.6-1.fc40} date 2024-12-19T20:54:24-0500
; FORMAT={-:-/ absolute / inch / decimal}
; #@! TF.CreationDate,2024-12-19T20:54:24-05:00
; #@! TF.GenerationSoftware,Kicad,Pcbnew,8.0.6-1.fc40
; #@! TF.FileFunction,Plated,1,4,PTH
FMAT,2
INCH
; #@! TA.AperFunction,Plated,PTH,ViaDrill
T1C0.0157
; #@! TA.AperFunction,Plated,PTH,ViaDrill
T2C0.0197
; #@! TA.AperFunction,Plated,PTH,ComponentDrill
T3C0.0315
; #@! TA.AperFunction,Plated,PTH,ComponentDrill
T4C0.0394
; #@! TA.AperFunction,Plated,PTH,ComponentDrill
T5C0.0433
; #@! TA.AperFunction,Plated,PTH,ComponentDrill
T6C0.0461
; #@! TA.AperFunction,Plated,PTH,ComponentDrill
T7C0.1260
%
G90
G05
T1
X4.3618Y-3.2169
X4.3618Y-3.2917
X4.3618Y-4.6366
X4.3618Y-4.7114
X4.5815Y-4.3646
X5.1398Y-4.3724
X5.2961Y-3.2272
X5.3304Y-4.4932
X5.3678Y-4.4437
X5.3709Y-3.2272
X5.4055Y-4.4932
X5.4839Y-4.4932
X5.4941Y-4.3319
X5.5587Y-4.4932
X5.6304Y-4.4932
X5.6344Y-3.3352
X5.6846Y-3.163
X5.7051Y-4.4932
X5.7539Y-3.3492
X5.7823Y-4.4932
X5.8555Y-3.4008
X5.8571Y-4.4932
X5.9555Y-3.4039
X6.0571Y-3.4055
X6.2531Y-4.6252
X6.4646Y-4.7732
X6.539Y-4.5673
X6.624Y-4.7063
X6.7236Y-4.7486
X6.9925Y-4.6614
T2
X5.9319Y-4.7055
X6.337Y-4.7185
X6.6535Y-4.6315
X6.8508Y-4.811
X7.0866Y-4.4783
T3
X6.4661Y-3.9835
X6.4661Y-4.0623
X6.4661Y-4.141
X6.5449Y-3.9835
X6.5449Y-4.0623
X6.5449Y-4.141
X7.0268Y-3.887
X7.0268Y-3.987
T4
X4.1764Y-3.537
X4.1764Y-3.637
X4.1764Y-3.737
X4.1764Y-3.837
X4.1764Y-3.937
X4.1764Y-4.037
X4.1764Y-4.137
X4.1764Y-4.237
X4.1764Y-4.337
X4.389Y-3.5874
X4.389Y-3.6874
X4.389Y-3.7874
X4.389Y-3.8874
X4.389Y-3.9874
X4.389Y-4.0874
X4.389Y-4.1874
X4.389Y-4.2874
X4.6339Y-4.8524
X4.6339Y-4.9524
X4.6346Y-4.587
X4.6382Y-2.902
X4.6382Y-3.002
X4.639Y-3.2677
X4.7339Y-4.8524
X4.7339Y-4.9524
X4.7346Y-4.587
X4.7382Y-2.902
X4.7382Y-3.002
X4.739Y-3.2677
X4.8339Y-4.8524
X4.8339Y-4.9524
X4.8346Y-4.587
X4.8382Y-2.902
X4.8382Y-3.002
X4.839Y-3.2677
X4.9339Y-4.8524
X4.9339Y-4.9524
X4.9346Y-4.587
X4.9382Y-2.902
X4.9382Y-3.002
X4.939Y-3.2677
X5.0339Y-4.8524
X5.0339Y-4.9524
X5.0346Y-4.587
X5.0382Y-2.902
X5.0382Y-3.002
X5.039Y-3.2677
X5.1339Y-4.8524
X5.1339Y-4.9524
X5.1346Y-4.587
X5.1382Y-2.902
X5.1382Y-3.002
X5.139Y-3.2677
X5.5189Y-4.9262
X5.5189Y-5.0262
X5.6189Y-4.9262
X5.6189Y-5.0262
X5.665Y-2.902
X5.665Y-3.002
X5.7189Y-4.9262
X5.7189Y-5.0262
X5.765Y-2.902
X5.765Y-3.002
X5.8189Y-4.9262
X5.8189Y-5.0262
X5.865Y-2.902
X5.865Y-3.002
X5.965Y-2.902
X5.965Y-3.002
X6.0352Y-3.2677
X6.065Y-2.902
X6.065Y-3.002
X6.0909Y-4.4856
X6.0909Y-4.5856
X6.0909Y-4.6856
X6.1352Y-3.2677
X6.165Y-2.902
X6.165Y-3.002
X6.2352Y-3.2677
X6.2555Y-4.3917
X6.265Y-2.902
X6.265Y-3.002
X6.3352Y-3.2677
X6.3555Y-4.3917
X6.365Y-2.902
X6.365Y-3.002
X6.4352Y-3.2677
X6.4555Y-4.3917
X6.465Y-2.902
X6.465Y-3.002
X6.5555Y-4.3917
X6.565Y-2.902
X6.565Y-3.002
X6.6189Y-3.2228
X6.6189Y-3.3228
X6.6555Y-4.3917
X6.7189Y-3.2228
X6.7189Y-3.3228
X6.7555Y-4.3917
X6.8189Y-3.2228
X6.8189Y-3.3228
X6.8555Y-4.3917
X6.9189Y-3.2228
X6.9189Y-3.3228
X6.9555Y-4.3917
X7.0189Y-3.2228
X7.0189Y-3.3228
T5
X4.7555Y-3.637
X4.7555Y-4.237
X4.8555Y-3.637
X4.8555Y-4.237
X4.9555Y-3.637
X4.9555Y-4.237
X5.0555Y-3.637
X5.0555Y-4.237
X5.1555Y-3.637
X5.1555Y-4.237
X5.2555Y-3.637
X5.2555Y-3.737
X5.2555Y-3.837
X5.2555Y-3.937
X5.2555Y-4.037
X5.2555Y-4.137
X5.2555Y-4.237
X5.3555Y-3.637
X5.3555Y-4.237
X5.4555Y-3.637
X5.4555Y-4.237
X5.5555Y-3.637
X5.5555Y-4.237
X5.6555Y-3.637
X5.6555Y-4.237
X5.7555Y-3.637
X5.7555Y-4.237
X5.8555Y-3.637
X5.8555Y-4.237
X5.9555Y-3.637
X5.9555Y-4.237
X6.0555Y-3.637
X6.0555Y-4.237
X6.1555Y-3.637
X6.1555Y-4.237
X6.2555Y-3.637
X6.2555Y-4.237
X6.3555Y-3.637
X6.3555Y-4.237
X6.4075Y-3.7571
X6.4555Y-3.637
X6.4555Y-4.237
X6.5075Y-3.7571
X6.5555Y-3.637
X6.5555Y-4.237
X6.6075Y-3.7571
X6.6555Y-3.637
X6.6555Y-4.237
X6.7075Y-3.7571
X6.7555Y-3.637
X6.7555Y-4.237
X6.8075Y-3.7571
X6.8555Y-3.637
X6.8555Y-4.237
X6.9555Y-3.637
X6.9555Y-4.137
X6.9555Y-4.237
X7.0555Y-3.637
X7.0555Y-4.237
T6
X6.1571Y-4.9386
X6.2571Y-4.9386
X6.5626Y-4.9386
X6.6626Y-4.9386
T7
X4.1732Y-2.9528
X4.1732Y-4.9213
X7.0079Y-2.9528
X7.0079Y-4.9213
M30
