%TF.GenerationSoftware,KiCad,Pcbnew,8.0.6-1.fc40*%
%TF.CreationDate,2024-12-19T20:54:17-05:00*%
%TF.ProjectId,Controller_T41,436f6e74-726f-46c6-9c65-725f5434312e,rev?*%
%TF.SameCoordinates,Original*%
%TF.FileFunction,Soldermask,Bot*%
%TF.FilePolarity,Negative*%
%FSLAX46Y46*%
G04 Gerber Fmt 4.6, Leading zero omitted, Abs format (unit mm)*
G04 Created by KiCad (PCBNEW 8.0.6-1.fc40) date 2024-12-19 20:54:17*
%MOMM*%
%LPD*%
G01*
G04 APERTURE LIST*
G04 Aperture macros list*
%AMRoundRect*
0 Rectangle with rounded corners*
0 $1 Rounding radius*
0 $2 $3 $4 $5 $6 $7 $8 $9 X,Y pos of 4 corners*
0 Add a 4 corners polygon primitive as box body*
4,1,4,$2,$3,$4,$5,$6,$7,$8,$9,$2,$3,0*
0 Add four circle primitives for the rounded corners*
1,1,$1+$1,$2,$3*
1,1,$1+$1,$4,$5*
1,1,$1+$1,$6,$7*
1,1,$1+$1,$8,$9*
0 Add four rect primitives between the rounded corners*
20,1,$1+$1,$2,$3,$4,$5,0*
20,1,$1+$1,$4,$5,$6,$7,0*
20,1,$1+$1,$6,$7,$8,$9,0*
20,1,$1+$1,$8,$9,$2,$3,0*%
G04 Aperture macros list end*
%ADD10RoundRect,0.250000X0.600000X-0.600000X0.600000X0.600000X-0.600000X0.600000X-0.600000X-0.600000X0*%
%ADD11C,1.700000*%
%ADD12R,1.755000X1.755000*%
%ADD13C,1.755000*%
%ADD14RoundRect,0.250000X-0.600000X0.600000X-0.600000X-0.600000X0.600000X-0.600000X0.600000X0.600000X0*%
%ADD15R,1.700000X1.700000*%
%ADD16O,1.700000X1.700000*%
%ADD17C,3.600000*%
%ADD18C,5.600000*%
%ADD19R,1.600000X1.600000*%
%ADD20C,1.600000*%
%ADD21R,1.300000X1.300000*%
%ADD22C,1.300000*%
G04 APERTURE END LIST*
D10*
%TO.C,J4*%
X143890000Y-76250000D03*
D11*
X143890000Y-73710000D03*
X146430000Y-76250000D03*
X146430000Y-73710000D03*
X148970000Y-76250000D03*
X148970000Y-73710000D03*
X151510000Y-76250000D03*
X151510000Y-73710000D03*
X154050000Y-76250000D03*
X154050000Y-73710000D03*
X156590000Y-76250000D03*
X156590000Y-73710000D03*
X159130000Y-76250000D03*
X159130000Y-73710000D03*
X161670000Y-76250000D03*
X161670000Y-73710000D03*
X164210000Y-76250000D03*
X164210000Y-73710000D03*
X166750000Y-76250000D03*
X166750000Y-73710000D03*
%TD*%
D12*
%TO.C,J2*%
X156390000Y-125440000D03*
D13*
X158930000Y-125440000D03*
%TD*%
D14*
%TO.C,J8*%
X130400000Y-123250000D03*
D11*
X130400000Y-125790000D03*
X127860000Y-123250000D03*
X127860000Y-125790000D03*
X125320000Y-123250000D03*
X125320000Y-125790000D03*
X122780000Y-123250000D03*
X122780000Y-125790000D03*
X120240000Y-123250000D03*
X120240000Y-125790000D03*
X117700000Y-123250000D03*
X117700000Y-125790000D03*
%TD*%
D15*
%TO.C,J12*%
X111480000Y-108900000D03*
D16*
X111480000Y-106360000D03*
X111480000Y-103820000D03*
X111480000Y-101280000D03*
X111480000Y-98740000D03*
X111480000Y-96200000D03*
X111480000Y-93660000D03*
X111480000Y-91120000D03*
%TD*%
D17*
%TO.C,H1*%
X178000000Y-125000000D03*
D18*
X178000000Y-125000000D03*
%TD*%
D19*
%TO.C,U2*%
X179210000Y-92380000D03*
D20*
X176670000Y-92380000D03*
X174130000Y-92380000D03*
X171590000Y-92380000D03*
X169050000Y-92380000D03*
X166510000Y-92380000D03*
X163970000Y-92380000D03*
X161430000Y-92380000D03*
X158890000Y-92380000D03*
X156350000Y-92380000D03*
X153810000Y-92380000D03*
X151270000Y-92380000D03*
X148730000Y-92380000D03*
X146190000Y-92380000D03*
X143650000Y-92380000D03*
X141110000Y-92380000D03*
X138570000Y-92380000D03*
X136030000Y-92380000D03*
X133490000Y-92380000D03*
X130950000Y-92380000D03*
X128410000Y-92380000D03*
X125870000Y-92380000D03*
X123330000Y-92380000D03*
X120790000Y-92380000D03*
X120790000Y-107620000D03*
X123330000Y-107620000D03*
X125870000Y-107620000D03*
X128410000Y-107620000D03*
X130950000Y-107620000D03*
X133490000Y-107620000D03*
X136030000Y-107620000D03*
X138570000Y-107620000D03*
X141110000Y-107620000D03*
X143650000Y-107620000D03*
X146190000Y-107620000D03*
X148730000Y-107620000D03*
X151270000Y-107620000D03*
X153810000Y-107620000D03*
X156350000Y-107620000D03*
X158890000Y-107620000D03*
X161430000Y-107620000D03*
X163970000Y-107620000D03*
X166510000Y-107620000D03*
X169050000Y-107620000D03*
X171590000Y-107620000D03*
X174130000Y-107620000D03*
X176670000Y-107620000D03*
X179210000Y-107620000D03*
X176670000Y-105080000D03*
X133490000Y-94920000D03*
X133490000Y-97460000D03*
X133490000Y-100000000D03*
X133490000Y-102540000D03*
X133490000Y-105080000D03*
D19*
X172910800Y-95430800D03*
D20*
X170370800Y-95430800D03*
X167830800Y-95430800D03*
X165290800Y-95430800D03*
X162750800Y-95430800D03*
D21*
X166240000Y-105181600D03*
D22*
X166240000Y-103181600D03*
X166240000Y-101181600D03*
X164240000Y-101181600D03*
X164240000Y-103181600D03*
X164240000Y-105181600D03*
X178480000Y-101270000D03*
X178480000Y-98730000D03*
%TD*%
D17*
%TO.C,H4*%
X106000000Y-75000000D03*
D18*
X106000000Y-75000000D03*
%TD*%
D15*
%TO.C,J13*%
X176670000Y-111550000D03*
D16*
X174130000Y-111550000D03*
X171590000Y-111550000D03*
X169050000Y-111550000D03*
X166510000Y-111550000D03*
X163970000Y-111550000D03*
X161430000Y-111550000D03*
X158890000Y-111550000D03*
%TD*%
D15*
%TO.C,J10*%
X147800000Y-125125000D03*
D16*
X147800000Y-127665000D03*
X145260000Y-125125000D03*
X145260000Y-127665000D03*
X142720000Y-125125000D03*
X142720000Y-127665000D03*
X140180000Y-125125000D03*
X140180000Y-127665000D03*
%TD*%
D12*
%TO.C,J1*%
X166690000Y-125440000D03*
D13*
X169230000Y-125440000D03*
%TD*%
D15*
%TO.C,J11*%
X106080000Y-89840000D03*
D16*
X106080000Y-92380000D03*
X106080000Y-94920000D03*
X106080000Y-97460000D03*
X106080000Y-100000000D03*
X106080000Y-102540000D03*
X106080000Y-105080000D03*
X106080000Y-107620000D03*
X106080000Y-110160000D03*
%TD*%
D15*
%TO.C,J7*%
X117830000Y-83000000D03*
D16*
X120370000Y-83000000D03*
X122910000Y-83000000D03*
X125450000Y-83000000D03*
X127990000Y-83000000D03*
X130530000Y-83000000D03*
%TD*%
D17*
%TO.C,H3*%
X106000000Y-125000000D03*
D18*
X106000000Y-125000000D03*
%TD*%
D15*
%TO.C,J5*%
X163455000Y-83000000D03*
D16*
X160915000Y-83000000D03*
X158375000Y-83000000D03*
X155835000Y-83000000D03*
X153295000Y-83000000D03*
%TD*%
D15*
%TO.C,J9*%
X130420000Y-116510000D03*
D16*
X127880000Y-116510000D03*
X125340000Y-116510000D03*
X122800000Y-116510000D03*
X120260000Y-116510000D03*
X117720000Y-116510000D03*
%TD*%
D15*
%TO.C,JP1*%
X154710000Y-119015000D03*
D16*
X154710000Y-116475000D03*
X154710000Y-113935000D03*
%TD*%
D17*
%TO.C,H2*%
X178000000Y-75000000D03*
D18*
X178000000Y-75000000D03*
%TD*%
D10*
%TO.C,J6*%
X117810000Y-76250000D03*
D11*
X117810000Y-73710000D03*
X120350000Y-76250000D03*
X120350000Y-73710000D03*
X122890000Y-76250000D03*
X122890000Y-73710000D03*
X125430000Y-76250000D03*
X125430000Y-73710000D03*
X127970000Y-76250000D03*
X127970000Y-73710000D03*
X130510000Y-76250000D03*
X130510000Y-73710000D03*
%TD*%
D15*
%TO.C,J3*%
X178280000Y-81860000D03*
D16*
X178280000Y-84400000D03*
X175740000Y-81860000D03*
X175740000Y-84400000D03*
X173200000Y-81860000D03*
X173200000Y-84400000D03*
X170660000Y-81860000D03*
X170660000Y-84400000D03*
X168120000Y-81860000D03*
X168120000Y-84400000D03*
%TD*%
M02*
